<svg width="82" height="54" viewBox="0 0 82 54" fill="none" xmlns="http://www.w3.org/2000/svg">
<path d="M7.99315 2.7955C21.8082 2.7955 35.6233 2.7955 49.4383 2.7955C57.4577 2.7955 65.6056 2.39007 73.6147 2.88294C77.3618 3.11353 82.2819 3.68787 77.7679 7.16736C68.1731 14.5634 56.529 20.4251 46.1157 26.5784C45.2779 27.0734 45.766 30.435 45.766 31.0377C45.766 36.2693 45.766 41.501 45.766 46.7326C45.766 47.9845 46.5174 51.4886 44.6293 51.5854C41.0927 51.7668 37.5047 51.5854 33.962 51.5854C29.7278 51.5854 30.7428 48.2441 30.9891 44.7653C31.3837 39.1914 31.6012 33.6966 31.6012 28.1085C31.6012 26.3582 32.1981 23.0918 31.4263 21.4196C31.0782 20.6654 29.6332 20.5604 29.0218 20.3266C25.8834 19.1267 23.0422 17.1264 20.1906 15.3864C15.3357 12.4241 5.10884 8.83088 2.48462 3.58244" stroke="white" stroke-width="3.60365" stroke-linecap="round"/>
</svg>
