<svg width="830" height="186" viewBox="0 0 830 186" fill="none" xmlns="http://www.w3.org/2000/svg">
<path d="M29.2159 50.2743C28.9679 50.8694 28.7943 51.4894 28.6951 52.1342C28.5959 52.7294 28.5215 53.3245 28.4719 53.9197C28.3727 55.5565 28.1247 57.1436 27.7279 58.6811C27.3807 60.1691 26.9592 61.7066 26.4632 63.2938C26.1656 64.0873 25.8432 64.8561 25.496 65.6001C25.1488 66.2945 24.7272 66.9888 24.2313 67.6832C23.1401 69.1712 21.8009 69.9399 20.2138 69.9895C18.6763 70.0391 17.2875 69.4935 16.0476 68.3528C15.4028 67.708 14.8324 67.0384 14.3364 66.3441C13.89 65.6497 13.4684 64.9057 13.0717 64.1121C11.7821 61.4834 10.7158 58.7803 9.87258 56.0028C9.07901 53.2253 8.31024 50.4478 7.56627 47.6703C6.92149 45.0912 6.32631 42.5369 5.78073 40.0074C5.28475 37.4283 4.81357 34.8492 4.36719 32.2701C4.0696 30.683 3.82161 29.1206 3.62321 27.5831C3.42482 25.996 3.30083 24.4336 3.25123 22.8961C3.25123 21.3585 3.49922 19.9202 3.9952 18.581C4.63998 17.3907 5.50795 16.8203 6.5991 16.8699C7.14468 16.9195 7.59107 17.1179 7.93825 17.4651C8.33504 17.7627 8.63263 18.1346 8.83102 18.581C9.07901 19.2258 9.27741 19.9202 9.4262 20.6641C9.57499 21.3585 9.69899 22.0777 9.79819 22.8217C10.1454 24.7064 10.4926 26.6159 10.8397 28.5503C11.1869 30.435 11.5589 32.3445 11.9557 34.2788C12.3029 36.0644 12.6501 37.8747 12.9973 39.7098C13.3941 41.545 13.7908 43.3553 14.1876 45.1408C14.5348 46.728 14.9068 48.3151 15.3036 49.9023C15.7004 51.4398 16.1715 52.9774 16.7171 54.5149C17.1139 55.5565 17.5107 56.5732 17.9075 57.5652C18.3043 58.5571 18.7755 59.5491 19.321 60.5411C19.3706 60.6403 19.3954 60.7395 19.3954 60.8387C19.445 60.9379 19.569 61.0123 19.7674 61.0619C20.1642 60.2187 20.4122 59.3259 20.5114 58.3836C21.1562 55.5565 21.7017 52.7046 22.1481 49.8279C22.5945 46.9512 22.9913 44.0745 23.3385 41.1978C23.4873 39.5114 23.6361 37.8499 23.7849 36.2132C23.9337 34.5268 24.1073 32.8901 24.3056 31.303C24.4048 30.6086 24.504 29.939 24.6032 29.2942C24.7024 28.6495 24.8264 28.0047 24.9752 27.3599C25.1736 26.5167 25.5952 25.7728 26.24 25.128C26.9344 24.5328 27.8023 24.2848 28.8439 24.384C29.8854 24.4832 30.679 24.88 31.2246 25.5744C31.7702 26.1199 32.1422 26.7399 32.3406 27.4343C32.5389 28.1287 32.6629 28.823 32.7125 29.5174C33.0597 31.9973 33.4317 34.502 33.8285 37.0315C34.2749 39.5114 34.7213 41.9914 35.1676 44.4713C35.5148 46.3064 35.9116 48.1167 36.358 49.9023C36.8044 51.6878 37.3252 53.4485 37.9203 55.1845C38.3171 56.2756 38.7635 57.342 39.2595 58.3836C39.7555 59.4251 40.3507 60.3923 41.045 61.285C41.3426 61.6818 41.541 61.8802 41.6402 61.8802C41.789 61.8802 42.037 61.6818 42.3842 61.285C43.029 60.3923 43.5497 59.4499 43.9465 58.4579C44.3433 57.466 44.6905 56.474 44.9881 55.4821C45.6825 53.1509 46.2528 50.795 46.6992 48.4143C47.1952 46.0336 47.592 43.6281 47.8896 41.1978C48.0384 39.6106 48.1624 37.9987 48.2616 36.362C48.4104 34.6756 48.5343 33.0141 48.6335 31.3774C48.7327 29.9886 48.7327 28.6247 48.6335 27.2855C48.5343 25.8968 48.4352 24.508 48.336 23.1193C48.2368 21.6809 48.1872 20.2674 48.1872 18.8786C48.1872 17.4403 48.2616 16.0019 48.4104 14.5636C48.6583 12.7284 49.6751 11.9349 51.4606 12.1829C52.0062 12.3317 52.4526 12.6292 52.7998 13.0756C53.0478 13.4228 53.271 13.8196 53.4694 14.266C53.6678 14.6628 53.8166 15.0596 53.9158 15.4563C54.4613 17.2915 54.8581 19.1762 55.1061 21.1105C55.3541 23.0449 55.5029 24.9544 55.5525 26.8391C55.7509 35.7668 54.8581 44.5705 52.8742 53.2501C52.527 54.8869 52.0806 56.4988 51.535 58.086C50.9895 59.6731 50.3199 61.2354 49.5263 62.773C48.7327 64.5089 47.6912 65.9473 46.4016 67.088C44.9137 68.5264 43.3017 69.2455 41.5658 69.2455C39.8299 69.1959 38.2427 68.452 36.8044 67.0136C35.6636 65.8729 34.7461 64.6825 34.0517 63.4426C32.9605 61.5578 32.0678 59.6235 31.3734 57.6396C30.7286 55.6557 30.1334 53.6717 29.5879 51.6878C29.5383 51.4398 29.4887 51.2166 29.4391 51.0182C29.3895 50.7702 29.3151 50.5222 29.2159 50.2743ZM68.4453 46.3312C68.6437 45.7856 68.7925 45.24 68.8917 44.6945C69.0405 44.0993 69.1893 43.5041 69.3381 42.9089C69.5365 42.2145 69.7844 41.5698 70.082 40.9746C70.3796 40.3794 70.7764 39.8338 71.2724 39.3379C72.1156 38.4947 73.0827 37.9739 74.1739 37.7755C75.265 37.5771 76.3314 37.8003 77.373 38.4451C78.6625 39.2883 79.6049 40.4786 80.2001 42.0162C80.7952 43.4049 81.2168 44.8433 81.4648 46.3312C81.7624 47.8191 82.0104 49.3071 82.2088 50.795C82.3576 53.0269 82.3576 55.2341 82.2088 57.4164C82.06 59.5987 81.8616 61.781 81.6136 63.9633C81.564 64.3601 81.4648 64.7569 81.316 65.1537C81.2168 65.5009 81.0184 65.8481 80.7208 66.1953C80.4729 66.592 80.1009 66.8896 79.6049 67.088C79.1585 67.2864 78.7121 67.2864 78.2657 67.088C77.4226 66.8896 76.9514 66.2201 76.8522 65.0793C76.6538 63.2442 76.4306 61.409 76.1826 59.5739C75.9842 57.7388 75.761 55.9036 75.513 54.0685C75.3146 52.9774 75.1906 51.911 75.141 50.8694C75.0914 49.8279 74.9427 48.8111 74.6947 47.8191C74.4963 47.8191 74.3723 47.8935 74.3227 48.0423C74.2731 48.1415 74.2235 48.2407 74.1739 48.3399C73.0827 50.8694 72.19 53.4485 71.4956 56.0772C70.8508 58.6563 70.4044 61.3346 70.1564 64.1121C70.1068 64.9057 70.0076 65.6993 69.8588 66.4928C69.7596 67.2864 69.6605 68.08 69.5613 68.8736C69.3133 70.4607 68.4205 71.3287 66.883 71.4775C66.2878 71.4775 65.7174 71.2295 65.1718 70.7335C64.6262 70.2871 64.3038 69.7167 64.2047 69.0224C64.0559 68.2288 63.9319 67.46 63.8327 66.716C63.7831 65.9721 63.7335 65.2033 63.6839 64.4097C63.4855 62.6738 63.2871 60.9379 63.0887 59.2019C62.8903 57.4164 62.7167 55.6557 62.5679 53.9197C62.3695 51.8862 62.1711 49.8775 61.9727 47.8935C61.7743 45.86 61.6255 43.8513 61.5264 41.8674C61.4272 40.0818 61.3528 38.3211 61.3032 36.5852C61.2536 34.8492 61.2288 33.0885 61.2288 31.303C61.2288 29.4182 61.2288 27.5087 61.2288 25.5744C61.2784 23.5904 61.5016 21.6561 61.8983 19.7714C61.9975 19.1762 62.1215 18.6058 62.2703 18.0602C62.4687 17.4651 62.7415 16.9195 63.0887 16.4235C63.4855 15.8283 63.9815 15.3819 64.5766 15.0844C65.2214 14.7868 65.8414 14.762 66.4366 15.01C67.7757 15.3075 68.4453 16.2747 68.4453 17.9114C68.5445 20.8377 68.4949 23.7888 68.2965 26.7647C68.1477 29.7406 68.0981 32.6917 68.1477 35.618C68.1973 37.4035 68.1973 39.1891 68.1477 40.9746C68.1477 42.7601 68.1477 44.5457 68.1477 46.3312H68.4453ZM110.136 53.8453C109.888 58.7059 108.102 63.2442 104.779 67.46C104.184 68.2536 103.489 68.948 102.696 69.5431C101.902 70.0887 101.01 70.5103 100.018 70.8079C98.0833 71.2543 96.2234 71.0311 94.4378 70.1383C93.7931 69.7415 93.1731 69.2703 92.5779 68.7248C91.9827 68.1296 91.4867 67.5096 91.09 66.8648C89.8004 64.8313 88.9324 62.7482 88.4861 60.6155C88.0397 58.4331 87.8909 56.2012 88.0397 53.9197C88.2381 51.8862 88.6844 49.9519 89.3788 48.1167C90.0732 46.232 91.09 44.5209 92.4291 42.9833C93.5699 41.7434 94.9338 40.9746 96.521 40.677C97.2649 40.4786 97.9345 40.4786 98.5297 40.677C99.1249 40.8258 99.6952 41.1234 100.241 41.5698C100.39 41.7186 100.563 41.8178 100.762 41.8674C100.96 41.8674 101.183 41.8674 101.431 41.8674C102.77 41.7186 103.961 41.917 105.002 42.4625C106.093 43.0081 107.036 43.8265 107.829 44.9176C108.722 46.1576 109.317 47.4968 109.615 48.9351C109.962 50.3238 110.136 51.9606 110.136 53.8453ZM99.5712 48.2655C99.0257 48.2655 98.4553 48.3399 97.8601 48.4887C97.3641 48.4887 96.9921 48.6127 96.7441 48.8607C96.4962 49.1087 96.273 49.4559 96.0746 49.9023C95.3802 51.7374 95.0082 53.5725 94.9586 55.4077C94.9586 57.2428 95.2314 59.1027 95.777 60.9875C96.0746 61.781 96.5458 62.5994 97.1905 63.4426C97.5377 63.7898 97.7857 63.9881 97.9345 64.0377C98.1329 64.0377 98.4057 63.8641 98.7529 63.517C99.1993 63.0706 99.6208 62.6242 100.018 62.1778C100.464 61.6818 100.836 61.161 101.134 60.6155C101.382 60.0203 101.63 59.4003 101.878 58.7555C102.175 58.1108 102.398 57.466 102.547 56.8212C102.795 55.8788 102.994 54.9365 103.142 53.9941C103.291 53.0022 103.242 52.0102 102.994 51.0182C102.746 49.9767 102.374 49.2575 101.878 48.8607C101.382 48.4639 100.613 48.2655 99.5712 48.2655ZM137.962 53.8453C137.714 58.7059 135.928 63.2442 132.605 67.46C132.01 68.2536 131.316 68.948 130.522 69.5431C129.729 70.0887 128.836 70.5103 127.844 70.8079C125.91 71.2543 124.05 71.0311 122.264 70.1383C121.619 69.7415 120.999 69.2703 120.404 68.7248C119.809 68.1296 119.313 67.5096 118.916 66.8648C117.627 64.8313 116.759 62.7482 116.312 60.6155C115.866 58.4331 115.717 56.2012 115.866 53.9197C116.064 51.8862 116.511 49.9519 117.205 48.1167C117.9 46.232 118.916 44.5209 120.255 42.9833C121.396 41.7434 122.76 40.9746 124.347 40.677C125.091 40.4786 125.761 40.4786 126.356 40.677C126.951 40.8258 127.522 41.1234 128.067 41.5698C128.216 41.7186 128.39 41.8178 128.588 41.8674C128.786 41.8674 129.009 41.8674 129.257 41.8674C130.597 41.7186 131.787 41.917 132.829 42.4625C133.92 43.0081 134.862 43.8265 135.656 44.9176C136.548 46.1576 137.144 47.4968 137.441 48.9351C137.788 50.3238 137.962 51.9606 137.962 53.8453ZM127.398 48.2655C126.852 48.2655 126.282 48.3399 125.686 48.4887C125.19 48.4887 124.818 48.6127 124.57 48.8607C124.322 49.1087 124.099 49.4559 123.901 49.9023C123.207 51.7374 122.835 53.5725 122.785 55.4077C122.785 57.2428 123.058 59.1027 123.603 60.9875C123.901 61.781 124.372 62.5994 125.017 63.4426C125.364 63.7898 125.612 63.9881 125.761 64.0377C125.959 64.0377 126.232 63.8641 126.579 63.517C127.026 63.0706 127.447 62.6242 127.844 62.1778C128.29 61.6818 128.662 61.161 128.96 60.6155C129.208 60.0203 129.456 59.4003 129.704 58.7555C130.001 58.1108 130.225 57.466 130.373 56.8212C130.621 55.8788 130.82 54.9365 130.969 53.9941C131.117 53.0022 131.068 52.0102 130.82 51.0182C130.572 49.9767 130.2 49.2575 129.704 48.8607C129.208 48.4639 128.439 48.2655 127.398 48.2655ZM151.058 44.7689C151.306 44.5209 151.529 44.2481 151.727 43.9505C151.975 43.6529 152.198 43.3801 152.397 43.1321C154.034 41.3466 155.918 40.4538 158.051 40.4538C160.184 40.4042 162.068 41.3962 163.705 43.4297C164.648 44.6201 165.342 45.9344 165.788 47.3728C166.235 48.7615 166.458 50.1999 166.458 51.6878C166.557 54.7629 166.185 57.714 165.342 60.5411C164.499 63.3186 163.06 65.9473 161.027 68.4272C160.332 69.2703 159.539 69.9895 158.646 70.5847C157.654 71.2295 156.613 71.7751 155.521 72.2214C154.48 72.7174 153.364 73.015 152.174 73.1142C151.578 73.2134 151.281 73.5854 151.281 74.2302C151.281 75.1725 151.281 76.1149 151.281 77.0573C151.33 77.9996 151.405 78.9668 151.504 79.9588C151.702 81.8931 151.901 83.8026 152.099 85.6873C152.347 87.6217 152.521 89.5808 152.62 91.5647C152.62 92.0111 152.62 92.4327 152.62 92.8295C152.62 93.2263 152.595 93.623 152.546 94.0198C152.149 95.6566 151.132 96.5493 149.495 96.6981C148.057 96.7973 147.015 96.0534 146.371 94.4662C146.073 93.3751 145.85 92.3583 145.701 91.4159C145.354 88.7872 145.056 86.1833 144.808 83.6042C144.61 81.0747 144.387 78.5204 144.139 75.9413C143.99 73.015 143.866 70.1135 143.767 67.2368C143.717 64.3601 143.667 61.4834 143.618 58.6067C143.568 56.7716 143.543 54.9365 143.543 53.1013C143.593 51.2662 143.643 49.4311 143.692 47.596C143.791 46.7528 143.891 45.9096 143.99 45.0664C144.089 44.2233 144.188 43.3801 144.287 42.5369C144.387 42.041 144.535 41.545 144.734 41.049C144.932 40.5034 145.23 40.0322 145.627 39.6354C146.519 38.7427 147.487 38.4203 148.528 38.6683C149.619 38.9163 150.363 39.6106 150.76 40.7514C150.859 41.1482 150.934 41.5698 150.983 42.0162C151.082 42.4625 151.082 42.9089 150.983 43.3553C150.934 43.5537 150.884 43.7769 150.834 44.0249C150.834 44.2233 150.834 44.4465 150.834 44.6945C150.934 44.6945 150.983 44.7193 150.983 44.7689C151.033 44.7689 151.058 44.7689 151.058 44.7689ZM157.753 47.4472C155.869 50.5222 154.505 53.7461 153.662 57.1188C152.818 60.4419 152.149 63.8393 151.653 67.3112C152.099 67.2616 152.422 67.1376 152.62 66.9392C152.868 66.6912 153.091 66.4929 153.29 66.3441C155.72 64.3601 157.381 62.1034 158.274 59.5739C159.167 56.9948 159.564 54.1925 159.465 51.167C159.415 50.5222 159.266 49.9023 159.018 49.3071C158.82 48.7119 158.398 48.0919 157.753 47.4472ZM185.043 64.6329C184.696 64.5337 184.349 64.4345 184.002 64.3353C183.704 64.1865 183.382 64.0625 183.034 63.9633C176.289 61.3842 172.644 56.5484 172.098 49.4559C171.9 47.1744 172.247 45.0664 173.14 43.1321C174.032 41.1978 175.421 39.561 177.306 38.2219C178.496 37.3787 179.736 36.8331 181.026 36.5852C182.315 36.3372 183.654 36.5852 185.043 37.3291C185.49 37.5275 185.911 37.8003 186.308 38.1475C186.754 38.4947 187.102 38.8915 187.35 39.3379C189.978 43.3057 190.425 47.4968 188.689 51.911C188.54 52.4566 188.193 52.8782 187.647 53.1757C187.151 53.4733 186.655 53.5725 186.159 53.4733C185.018 53.3741 184.374 52.6054 184.225 51.167C184.225 50.4726 184.225 49.8031 184.225 49.1583C184.274 48.4639 184.25 47.7943 184.15 47.1496C184.101 46.604 183.977 46.0832 183.778 45.5872C183.63 45.0416 183.382 44.5457 183.034 44.0993C182.489 43.5041 181.919 43.4297 181.323 43.8761C180.728 44.3721 180.257 44.9672 179.91 45.6616C179.563 46.3064 179.29 47.0256 179.091 47.8191C178.843 49.5055 179.191 51.1918 180.133 52.8782C181.125 54.5645 182.315 55.7796 183.704 56.5236C184.547 56.97 185.39 57.342 186.234 57.6396C187.077 57.8876 187.97 58.1108 188.912 58.3092C189.358 58.4083 189.78 58.5323 190.177 58.6811C190.623 58.8299 191.069 58.9539 191.516 59.0531C192.657 59.4995 193.475 60.2435 193.971 61.285C194.467 62.277 194.566 63.3682 194.268 64.5585C194.07 65.6497 193.524 66.6416 192.632 67.5344C191.541 68.7744 190.301 69.8159 188.912 70.6591C187.523 71.5023 186.11 72.3206 184.671 73.1142C183.778 73.5606 182.886 73.9574 181.993 74.3046C181.15 74.7013 180.232 74.9741 179.24 75.1229C178.794 75.1725 178.347 75.1725 177.901 75.1229C177.504 75.0733 177.083 74.9989 176.636 74.8997C175.396 74.503 174.652 73.7838 174.404 72.7422C174.156 71.7503 174.206 70.8327 174.553 69.9895C174.801 69.2951 175.173 68.7 175.669 68.204C176.066 67.8568 176.463 67.6336 176.86 67.5344C177.306 67.4352 177.727 67.5096 178.124 67.7576C178.471 67.956 178.769 68.0304 179.017 67.9808C179.265 67.9312 179.513 67.8568 179.761 67.7576C180.455 67.3608 181.15 66.9888 181.844 66.6416C182.588 66.2945 183.307 65.9225 184.002 65.5257C184.2 65.4265 184.398 65.3025 184.597 65.1537C184.795 65.0049 184.944 64.8313 185.043 64.6329ZM201.336 43.8761V33.0885C201.386 30.7574 201.411 28.4511 201.411 26.1695C201.46 23.888 201.535 21.6065 201.634 19.325C201.733 17.7379 201.832 16.1259 201.931 14.4892C202.08 12.8028 202.254 11.1413 202.452 9.50456C202.551 8.5126 202.799 7.66943 203.196 6.97506C203.841 5.63591 204.783 5.04073 206.023 5.18952C206.718 5.23912 207.288 5.46231 207.734 5.8591C208.181 6.25588 208.503 6.77666 208.702 7.42144C208.95 8.06622 209.049 8.73579 208.999 9.43017C208.999 10.1245 208.974 10.8189 208.925 11.5133C208.826 12.7532 208.776 13.9932 208.776 15.2332C208.776 16.4235 208.751 17.6139 208.702 18.8042C208.652 20.7385 208.503 22.6481 208.255 24.5328C208.057 26.4175 207.858 28.3023 207.66 30.187C207.61 31.1294 207.561 32.0717 207.511 33.0141C207.511 33.9565 207.462 34.874 207.362 35.7668C207.164 37.2051 207.015 38.6683 206.916 40.1562C206.866 41.6442 206.742 43.1073 206.544 44.5457C206.445 45.3888 206.37 46.232 206.321 47.0752C206.271 47.9183 206.197 48.7863 206.098 49.6791C205.949 51.3158 205.8 52.9774 205.651 54.6637C205.552 56.3004 205.403 57.962 205.205 59.6483C205.205 59.9955 205.155 60.3427 205.056 60.6899C204.957 60.9875 204.833 61.3098 204.684 61.657C204.287 62.4506 203.717 62.773 202.973 62.6242C202.279 62.6242 201.807 62.2274 201.559 61.4338C201.361 60.7891 201.237 60.1691 201.187 59.5739C201.187 58.9787 201.187 58.3588 201.187 57.714C201.187 55.6805 201.187 53.5725 201.187 51.3902C201.187 49.1583 201.237 46.6536 201.336 43.8761ZM205.354 73.7094C205.304 74.0566 205.254 74.3542 205.205 74.6021C205.155 74.8997 205.081 75.1973 204.982 75.4949C204.436 76.7845 203.469 77.3796 202.08 77.2805C201.535 77.1813 201.039 76.8837 200.592 76.3877C200.195 75.8917 199.997 75.3213 199.997 74.6765C199.997 73.9822 200.121 73.3126 200.369 72.6678C200.667 72.0726 201.138 71.6015 201.783 71.2543C202.477 70.7087 203.196 70.5847 203.94 70.8823C204.684 71.2295 205.106 71.8247 205.205 72.6678C205.304 72.8662 205.329 73.0398 205.279 73.1886C205.279 73.3374 205.304 73.511 205.354 73.7094ZM247.453 38.2963C247.701 38.0483 247.85 37.8003 247.9 37.5523C247.949 37.3043 248.024 37.0811 248.123 36.8827C249.264 33.6589 250.479 30.5342 251.768 27.5087C253.058 24.4336 254.471 21.3833 256.009 18.3578C256.406 17.5643 256.852 16.7707 257.348 15.9771C257.844 15.134 258.34 14.3652 258.836 13.6708C259.084 13.2244 259.357 12.8028 259.654 12.4061C260.002 12.0093 260.398 11.6869 260.845 11.4389C261.241 11.0421 261.762 10.7693 262.407 10.6205C263.3 10.4717 264.019 10.6949 264.565 11.2901C265.16 11.8357 265.408 12.5548 265.309 13.4476C265.209 14.0428 265.011 14.638 264.713 15.2332C264.416 15.7787 264.118 16.3243 263.821 16.8699C262.134 20.0938 260.522 23.3424 258.985 26.6159C257.497 29.8894 256.182 33.2373 255.042 36.6596C253.752 40.1314 252.562 43.6281 251.471 47.1496C250.379 50.6214 249.338 54.1429 248.346 57.714C247.552 60.1443 246.808 62.5994 246.114 65.0793C245.965 65.8233 245.916 66.5424 245.965 67.2368C246.114 68.2784 245.792 69.0224 244.998 69.4687C244.502 69.6175 243.957 69.6423 243.361 69.5431C242.766 69.4439 242.27 69.2207 241.873 68.8736C241.477 68.4272 241.179 67.9312 240.981 67.3856C240.832 66.84 240.757 66.2945 240.757 65.7489C240.757 64.6081 240.857 63.517 241.055 62.4754C241.253 61.4338 241.452 60.3675 241.65 59.2763C242.543 55.0109 243.659 50.7702 244.998 46.5544C245.097 46.1576 245.122 45.8352 245.072 45.5872C245.072 45.3392 244.899 45.0416 244.552 44.6945C243.56 43.8017 242.717 42.8097 242.022 41.7186C241.328 40.6274 240.683 39.5362 240.088 38.4451C238.898 36.114 237.782 33.7829 236.74 31.4517C235.698 29.1206 234.756 26.7647 233.913 24.384C233.467 23.1937 233.045 22.0033 232.648 20.8129C232.251 19.573 231.855 18.333 231.458 17.0931C231.259 16.3987 231.309 15.7291 231.607 15.0844C231.904 14.39 232.375 13.8692 233.02 13.522C234.508 12.9268 235.748 13.2988 236.74 14.638C236.988 15.0348 237.186 15.4563 237.335 15.9027C237.484 16.2995 237.658 16.6963 237.856 17.0931C238.749 19.077 239.567 21.1105 240.311 23.1937C241.105 25.2768 241.948 27.3351 242.841 29.3686C244.13 32.3445 245.544 35.1468 247.081 37.7755C247.081 37.8747 247.131 37.9739 247.23 38.0731C247.329 38.1227 247.404 38.1971 247.453 38.2963ZM284.141 53.8453C283.893 58.7059 282.107 63.2442 278.784 67.46C278.189 68.2536 277.495 68.948 276.701 69.5431C275.908 70.0887 275.015 70.5103 274.023 70.8079C272.089 71.2543 270.229 71.0311 268.443 70.1383C267.798 69.7415 267.178 69.2703 266.583 68.7248C265.988 68.1296 265.492 67.5096 265.095 66.8648C263.806 64.8313 262.938 62.7482 262.491 60.6155C262.045 58.4331 261.896 56.2012 262.045 53.9197C262.243 51.8862 262.69 49.9519 263.384 48.1167C264.078 46.232 265.095 44.5209 266.434 42.9833C267.575 41.7434 268.939 40.9746 270.526 40.677C271.27 40.4786 271.94 40.4786 272.535 40.677C273.13 40.8258 273.7 41.1234 274.246 41.5698C274.395 41.7186 274.568 41.8178 274.767 41.8674C274.965 41.8674 275.188 41.8674 275.436 41.8674C276.776 41.7186 277.966 41.917 279.007 42.4625C280.099 43.0081 281.041 43.8265 281.835 44.9176C282.727 46.1576 283.323 47.4968 283.62 48.9351C283.967 50.3238 284.141 51.9606 284.141 53.8453ZM273.576 48.2655C273.031 48.2655 272.461 48.3399 271.865 48.4887C271.369 48.4887 270.997 48.6127 270.749 48.8607C270.501 49.1087 270.278 49.4559 270.08 49.9023C269.385 51.7374 269.013 53.5725 268.964 55.4077C268.964 57.2428 269.237 59.1027 269.782 60.9875C270.08 61.781 270.551 62.5994 271.196 63.4426C271.543 63.7898 271.791 63.9881 271.94 64.0377C272.138 64.0377 272.411 63.8641 272.758 63.517C273.205 63.0706 273.626 62.6242 274.023 62.1778C274.469 61.6818 274.841 61.161 275.139 60.6155C275.387 60.0203 275.635 59.4003 275.883 58.7555C276.18 58.1108 276.404 57.466 276.552 56.8212C276.8 55.8788 276.999 54.9365 277.148 53.9941C277.296 53.0022 277.247 52.0102 276.999 51.0182C276.751 49.9767 276.379 49.2575 275.883 48.8607C275.387 48.4639 274.618 48.2655 273.576 48.2655ZM307.95 63.7402C307.751 64.0873 307.528 64.4097 307.28 64.7073C307.082 65.0049 306.859 65.3273 306.611 65.6745C306.263 66.1705 305.867 66.6664 305.42 67.1624C305.023 67.6088 304.577 68.0304 304.081 68.4272C302.444 69.6175 300.832 70.0887 299.245 69.8407C297.658 69.5927 296.319 69.0224 295.228 68.1296C293.889 66.9888 292.922 65.6497 292.326 64.1121C290.938 60.9875 290.119 57.7884 289.871 54.5149C289.673 51.2414 289.946 47.9679 290.69 44.6945C290.987 43.1569 291.657 41.9666 292.698 41.1234C293.145 40.7266 293.616 40.4538 294.112 40.305C294.608 40.1066 295.129 40.1562 295.674 40.4538C296.22 40.6522 296.617 40.9994 296.865 41.4954C297.113 41.9418 297.237 42.4377 297.237 42.9833C297.237 43.4297 297.237 43.8761 297.237 44.3225C297.237 44.7689 297.212 45.1904 297.162 45.5872C296.964 47.1248 296.865 48.6871 296.865 50.2743C296.865 51.8118 296.964 53.3741 297.162 54.9613C297.261 56.0524 297.41 57.1436 297.609 58.2348C297.857 59.2763 298.229 60.2931 298.725 61.285C298.824 61.4834 298.923 61.6322 299.022 61.7314C299.32 62.277 299.592 62.5994 299.84 62.6986C300.088 62.7978 300.485 62.6986 301.031 62.401C302.172 61.7066 303.064 60.8139 303.709 59.7227C304.453 58.7803 305.023 57.7636 305.42 56.6724C305.817 55.5813 306.139 54.4901 306.387 53.3989C306.834 51.6134 307.131 49.8031 307.28 47.9679C307.429 46.1328 307.479 44.2977 307.429 42.4625C307.429 40.925 308.024 39.7346 309.215 38.8915C310.206 38.1971 311.298 38.0483 312.488 38.4451C313.728 38.8419 314.522 39.809 314.869 41.3466C315.067 42.1402 315.166 42.9585 315.166 43.8017C315.216 44.5953 315.191 45.4136 315.092 46.2568C315.042 48.8359 314.993 51.415 314.943 53.9941C314.894 56.5236 314.943 59.0779 315.092 61.657C315.191 62.897 315.216 64.1865 315.166 65.5257C315.117 66.8648 315.067 68.1792 315.018 69.4687C314.869 70.5599 314.298 71.3287 313.306 71.7751C312.81 71.9734 312.314 71.9734 311.818 71.7751C311.322 71.5767 310.901 71.2791 310.554 70.8823C310.256 70.5351 310.008 70.2127 309.81 69.9151C309.661 69.5679 309.537 69.2207 309.438 68.8736C309.14 68.0304 308.867 67.1872 308.619 66.3441C308.421 65.5009 308.198 64.6329 307.95 63.7402ZM323.945 13.6708C324.738 13.6708 325.358 13.9932 325.805 14.638C326.301 15.2331 326.449 15.9771 326.251 16.8699C326.102 17.6139 325.953 18.333 325.805 19.0274C325.705 19.7218 325.557 20.4162 325.358 21.1105C325.309 21.4577 325.259 21.7801 325.209 22.0777C325.209 22.3753 325.259 22.6977 325.358 23.0449C325.507 23.8384 325.259 24.4584 324.614 24.9048C323.92 25.3512 323.201 25.3264 322.457 24.8304C321.613 24.3344 321.142 23.6152 321.043 22.6729C320.845 21.5321 320.77 20.3666 320.82 19.1762C320.919 17.9858 321.093 16.8203 321.341 15.6795C321.44 15.0348 321.737 14.5388 322.233 14.1916C322.729 13.8444 323.3 13.6708 323.945 13.6708ZM340.936 59.8715C341.184 59.2267 341.383 58.6563 341.531 58.1604C341.68 57.6148 341.804 57.094 341.903 56.598C342.449 54.7629 342.945 52.903 343.391 51.0182C343.838 49.1335 344.309 47.2488 344.805 45.364C345.003 44.4217 345.35 43.4545 345.846 42.4625C346.194 41.5698 346.69 40.801 347.334 40.1562C348.029 39.5114 348.798 38.9659 349.641 38.5195C350.682 38.0235 351.575 38.1475 352.319 38.8915C353.013 39.5858 353.038 40.3546 352.393 41.1978C352.195 41.5946 352.071 42.0162 352.021 42.4625C351.972 42.8593 351.922 43.2561 351.873 43.6529C351.525 45.3888 351.104 47.1 350.608 48.7863C350.161 50.4726 349.765 52.1838 349.418 53.9197C349.07 55.6061 348.723 57.2676 348.376 58.9043C348.029 60.5411 347.582 62.2026 347.037 63.8889C346.838 64.6825 346.615 65.4513 346.367 66.1953C346.119 66.8896 345.822 67.6336 345.474 68.4272C345.326 68.7744 345.152 69.1216 344.954 69.4687C344.755 69.7663 344.532 70.0639 344.284 70.3615C343.342 71.4527 342.226 71.9982 340.936 71.9982C339.647 71.9982 338.531 71.4527 337.588 70.3615C337.092 69.8159 336.696 69.2207 336.398 68.576C336.1 67.8816 335.828 67.1624 335.58 66.4185C334.736 64.0873 334.092 61.7066 333.645 59.2763C333.199 56.7964 332.827 54.3413 332.529 51.911C332.381 50.8694 332.257 49.8279 332.157 48.7863C332.108 47.6951 332.058 46.6288 332.009 45.5872C332.009 44.8929 332.033 44.2233 332.083 43.5785C332.182 42.8841 332.331 42.2145 332.529 41.5698C332.678 41.0738 332.901 40.5778 333.199 40.0818C333.893 39.2387 334.662 38.8419 335.505 38.8915C336.398 38.9411 337.092 39.4619 337.588 40.4538C337.836 40.9994 338.035 41.5698 338.184 42.165C338.332 42.7601 338.432 43.3801 338.481 44.0249C338.729 46.356 339.002 48.7119 339.299 51.0926C339.647 53.4237 340.043 55.7548 340.49 58.086C340.539 58.334 340.589 58.6067 340.639 58.9043C340.738 59.1523 340.837 59.4747 340.936 59.8715ZM356.783 56.97C356.783 54.6389 357.106 52.407 357.751 50.2743C358.445 48.0919 359.338 45.9592 360.429 43.8761C360.974 42.8841 361.619 41.9418 362.363 41.049C363.107 40.1562 363.95 39.3875 364.893 38.7427C366.182 37.8499 367.521 37.3291 368.91 37.1803C370.398 37.0811 371.737 37.4035 372.928 38.1475C374.118 38.8915 375.036 39.9082 375.68 41.1978C376.325 42.4377 376.523 43.8513 376.276 45.4384C376.226 45.8848 376.127 46.356 375.978 46.852C375.829 47.348 375.631 47.8191 375.383 48.2655C374.738 49.5055 373.969 50.6958 373.076 51.8366C372.233 52.9278 371.192 53.8949 369.952 54.7381C369.158 55.2837 368.315 55.7548 367.422 56.1516C366.579 56.4988 365.661 56.6476 364.67 56.598C364.322 56.598 364.099 56.6476 364 56.7468C363.95 56.846 363.926 57.0692 363.926 57.4164C363.876 58.21 363.926 59.0035 364.074 59.7971C364.223 60.5907 364.422 61.3842 364.67 62.1778C364.967 62.8226 365.24 63.1946 365.488 63.2938C365.736 63.393 366.182 63.2442 366.827 62.8474C367.769 62.3514 368.613 61.6818 369.357 60.8387C369.803 60.4419 370.249 60.0947 370.696 59.7971C371.142 59.4499 371.588 59.1027 372.035 58.7555C372.233 58.5571 372.531 58.3588 372.928 58.1604C373.672 57.9124 374.292 57.9868 374.788 58.3836C375.333 58.7307 375.606 59.3011 375.606 60.0947C375.606 60.4419 375.581 60.7891 375.532 61.1362C375.482 61.4834 375.408 61.8306 375.308 62.1778C374.664 64.0625 373.746 65.6993 372.556 67.088C371.365 68.4768 369.753 69.4935 367.72 70.1383C364.893 70.8823 362.438 70.2127 360.354 68.1296C359.263 67.0384 358.495 65.8233 358.048 64.4841C357.602 63.145 357.255 61.7562 357.007 60.3179C356.957 59.7723 356.907 59.2267 356.858 58.6811C356.858 58.086 356.833 57.5156 356.783 56.97ZM370.696 44.6945C370.696 44.3473 370.671 44.0497 370.621 43.8017C370.572 43.5041 370.423 43.3057 370.175 43.2065C369.828 43.0081 369.381 43.1321 368.836 43.5785C368.637 43.6777 368.464 43.8017 368.315 43.9505C368.166 44.0993 367.993 44.2729 367.794 44.4713C367.149 45.2648 366.604 46.1328 366.157 47.0752C365.761 48.0175 365.389 48.9599 365.042 49.9023C364.794 50.2495 364.818 50.5222 365.116 50.7206C365.215 50.8198 365.339 50.8694 365.488 50.8694C365.686 50.8198 365.835 50.7702 365.934 50.7206C368.166 49.4807 369.729 47.6455 370.621 45.2152C370.671 45.116 370.696 45.0168 370.696 44.9176C370.696 44.7689 370.696 44.6945 370.696 44.6945ZM405.4 46.0336C405.747 45.7856 405.971 45.5376 406.07 45.2896C406.169 44.992 406.268 44.7441 406.367 44.5457C406.814 43.7025 407.335 42.9089 407.93 42.165C408.525 41.3714 409.244 40.7266 410.087 40.2306C411.228 39.5362 412.344 39.1395 413.435 39.0403C414.576 38.8915 415.717 39.1643 416.857 39.8586C417.701 40.305 418.321 40.9746 418.717 41.8674C419.164 42.7601 419.288 43.6529 419.089 44.5457C418.941 45.488 418.544 46.108 417.899 46.4056C417.254 46.7032 416.51 46.604 415.667 46.108C415.221 45.86 414.849 45.736 414.551 45.736C414.254 45.736 413.906 45.9344 413.51 46.3312C413.311 46.5296 413.113 46.7776 412.914 47.0752C412.766 47.3728 412.592 47.6455 412.394 47.8935C412.046 48.6871 411.749 49.4807 411.501 50.2743C411.253 51.0182 411.005 51.787 410.757 52.5806C410.311 54.1181 409.889 55.6805 409.492 57.2676C409.145 58.8051 408.847 60.3675 408.599 61.9546C408.5 62.9466 408.401 63.9385 408.302 64.9305C408.203 65.9225 408.153 66.9144 408.153 67.9064C408.153 68.2536 408.128 68.6256 408.079 69.0224C408.079 69.4191 408.004 69.8159 407.855 70.2127C407.359 71.7007 406.343 72.4446 404.805 72.4446C403.268 72.5934 402.152 71.9734 401.457 70.5847C401.259 70.1879 401.11 69.7663 401.011 69.3199C400.961 68.8736 400.887 68.4768 400.788 68.1296C400.44 66.0465 400.143 63.9881 399.895 61.9546C399.647 59.8715 399.399 57.7884 399.151 55.7052C398.953 53.6717 398.829 51.6134 398.779 49.5303C398.729 47.3976 398.729 45.2648 398.779 43.1321C398.779 41.7434 399.3 40.7266 400.341 40.0818C401.234 39.5362 402.152 39.4619 403.094 39.8586C404.036 40.2058 404.656 40.8754 404.954 41.8674C405.251 42.6609 405.4 43.4545 405.4 44.2481C405.351 44.4961 405.326 44.7689 405.326 45.0664C405.375 45.364 405.4 45.6864 405.4 46.0336ZM422.535 56.97C422.535 54.6389 422.857 52.407 423.502 50.2743C424.196 48.0919 425.089 45.9592 426.18 43.8761C426.726 42.8841 427.371 41.9418 428.115 41.049C428.859 40.1562 429.702 39.3875 430.644 38.7427C431.934 37.8499 433.273 37.3291 434.662 37.1803C436.15 37.0811 437.489 37.4035 438.679 38.1475C439.869 38.8915 440.787 39.9082 441.432 41.1978C442.077 42.4377 442.275 43.8513 442.027 45.4384C441.977 45.8848 441.878 46.356 441.729 46.852C441.581 47.348 441.382 47.8191 441.134 48.2655C440.489 49.5055 439.721 50.6958 438.828 51.8366C437.985 52.9278 436.943 53.8949 435.703 54.7381C434.91 55.2837 434.066 55.7548 433.174 56.1516C432.331 56.4988 431.413 56.6476 430.421 56.598C430.074 56.598 429.851 56.6476 429.751 56.7468C429.702 56.846 429.677 57.0692 429.677 57.4164C429.627 58.21 429.677 59.0035 429.826 59.7971C429.975 60.5907 430.173 61.3842 430.421 62.1778C430.719 62.8226 430.991 63.1946 431.239 63.2938C431.487 63.393 431.934 63.2442 432.579 62.8474C433.521 62.3514 434.364 61.6818 435.108 60.8387C435.554 60.4419 436.001 60.0947 436.447 59.7971C436.894 59.4499 437.34 59.1027 437.786 58.7555C437.985 58.5571 438.282 58.3588 438.679 58.1604C439.423 57.9124 440.043 57.9868 440.539 58.3836C441.085 58.7307 441.357 59.3011 441.357 60.0947C441.357 60.4419 441.333 60.7891 441.283 61.1362C441.233 61.4834 441.159 61.8306 441.06 62.1778C440.415 64.0625 439.497 65.6993 438.307 67.088C437.117 68.4768 435.505 69.4935 433.471 70.1383C430.644 70.8823 428.189 70.2127 426.106 68.1296C425.015 67.0384 424.246 65.8233 423.8 64.4841C423.353 63.145 423.006 61.7562 422.758 60.3179C422.708 59.7723 422.659 59.2267 422.609 58.6811C422.609 58.086 422.584 57.5156 422.535 56.97ZM436.447 44.6945C436.447 44.3473 436.422 44.0497 436.373 43.8017C436.323 43.5041 436.174 43.3057 435.926 43.2065C435.579 43.0081 435.133 43.1321 434.587 43.5785C434.389 43.6777 434.215 43.8017 434.066 43.9505C433.918 44.0993 433.744 44.2729 433.546 44.4713C432.901 45.2648 432.355 46.1328 431.909 47.0752C431.512 48.0175 431.14 48.9599 430.793 49.9023C430.545 50.2495 430.57 50.5222 430.867 50.7206C430.967 50.8198 431.091 50.8694 431.239 50.8694C431.438 50.8198 431.587 50.7702 431.686 50.7206C433.918 49.4807 435.48 47.6455 436.373 45.2152C436.422 45.116 436.447 45.0168 436.447 44.9176C436.447 44.7689 436.447 44.6945 436.447 44.6945ZM464.336 64.5585C463.989 64.8065 463.716 65.1289 463.518 65.5257C463.369 65.8729 463.171 66.1705 462.923 66.4185C462.427 67.1624 461.881 67.8568 461.286 68.5016C460.691 69.0968 459.972 69.5679 459.128 69.9151C457.74 70.5599 456.326 70.6095 454.888 70.0639C453.499 69.4687 452.532 68.452 451.986 67.0136C450.895 64.2361 450.573 61.5826 451.019 59.0531C451.515 56.5236 452.656 54.1181 454.441 51.8366C455.433 50.5966 456.599 49.7287 457.938 49.2327C459.327 48.6871 460.84 48.5879 462.476 48.9351C462.576 48.9351 462.65 48.9599 462.7 49.0095C462.799 49.0095 462.898 49.0095 462.997 49.0095C463.196 48.6127 463.245 48.2655 463.146 47.9679C463.047 47.6207 462.972 47.2736 462.923 46.9264C462.724 45.8352 462.476 44.7937 462.179 43.8017C461.931 42.8097 461.608 41.8426 461.212 40.9002C460.616 39.6106 460.071 38.9163 459.575 38.8171C459.128 38.7179 458.384 39.1147 457.343 40.0074C455.706 41.3962 454.293 43.0577 453.102 44.992C452.705 45.488 452.507 45.984 452.507 46.48C452.507 47.5712 451.986 48.2655 450.945 48.5631C450.598 48.6623 450.176 48.6127 449.68 48.4143C449.184 48.2159 448.787 47.9431 448.49 47.596C447.845 46.604 447.622 45.5128 447.82 44.3225C448.018 43.1817 448.341 42.1154 448.787 41.1234C449.234 40.0818 449.779 39.1147 450.424 38.2219C451.118 37.2299 451.862 36.3372 452.656 35.5436C453.449 34.7004 454.342 33.9565 455.334 33.3117C456.921 32.3197 458.632 31.8981 460.468 32.0469C462.352 32.1461 464.014 33.0141 465.452 34.6508C466.097 35.2956 466.593 36.0148 466.94 36.8084C467.337 37.5523 467.709 38.3459 468.056 39.1891C468.602 40.7266 469.048 42.2889 469.395 43.8761C469.792 45.4632 470.09 47.0752 470.288 48.7119C470.536 50.9438 470.759 53.1509 470.958 55.3333C471.156 57.5156 471.33 59.7227 471.478 61.9546C471.627 63.2442 471.627 64.5585 471.478 65.8977C471.379 67.3856 470.759 68.452 469.618 69.0968C468.478 69.6919 467.287 69.5927 466.047 68.7992C465.551 68.452 465.204 68.0304 465.006 67.5344C464.807 67.0384 464.659 66.5176 464.559 65.9721C464.51 65.7241 464.485 65.5009 464.485 65.3025C464.485 65.0545 464.435 64.8065 464.336 64.5585ZM458.012 62.8474C458.806 62.0042 459.575 61.1858 460.319 60.3923C461.063 59.5491 461.708 58.6315 462.253 57.6396C462.402 57.342 462.377 56.9948 462.179 56.598C462.03 56.1516 461.782 55.8292 461.435 55.6309C461.088 55.3829 460.815 55.3581 460.616 55.5565C460.468 55.7052 460.269 55.8292 460.021 55.9284C459.972 56.0276 459.897 56.1268 459.798 56.226C459.699 56.3252 459.624 56.4244 459.575 56.5236C458.93 57.466 458.459 58.4579 458.161 59.4995C457.864 60.4915 457.814 61.6074 458.012 62.8474ZM477.243 58.086C477.193 55.6061 477.565 53.3245 478.359 51.2414C479.202 49.1583 480.318 47.1992 481.707 45.364C483.096 43.5785 484.956 42.2641 487.287 41.421C488.229 41.173 489.171 41.0986 490.114 41.1978C491.056 41.2474 491.974 41.545 492.866 42.0906C493.263 42.3881 493.586 42.7105 493.834 43.0577C494.131 43.4049 494.33 43.8017 494.429 44.2481C494.677 45.488 494.429 46.5048 493.685 47.2984C492.941 48.0423 491.998 48.2903 490.858 48.0423C490.213 47.8439 489.643 47.8439 489.147 48.0423C488.651 48.2407 488.179 48.5631 487.733 49.0095C484.559 52.6302 483.517 56.6972 484.608 61.2106C484.956 62.649 485.501 63.517 486.245 63.8145C486.989 64.1121 488.031 63.9385 489.37 63.2938C490.312 62.8474 491.106 62.1778 491.75 61.285C491.85 61.0371 491.974 60.8387 492.122 60.6899C492.271 60.5411 492.445 60.3675 492.643 60.1691C493.139 59.5739 493.734 59.4251 494.429 59.7227C495.222 60.1195 495.619 60.6899 495.619 61.4338C495.718 62.525 495.52 63.517 495.024 64.4097C494.578 65.2529 494.007 66.0713 493.313 66.8648C492.37 67.8072 491.329 68.5512 490.188 69.0968C489.097 69.6423 487.907 70.0639 486.617 70.3615C485.526 70.5103 484.484 70.4607 483.492 70.2127C482.55 69.9151 481.682 69.3695 480.888 68.576C479.897 67.584 479.128 66.4929 478.582 65.3025C478.086 64.0625 477.714 62.773 477.466 61.4338C477.367 60.8883 477.293 60.3179 477.243 59.7227C477.193 59.1275 477.193 58.5819 477.243 58.086ZM508.508 46.3312C508.706 45.7856 508.855 45.24 508.954 44.6945C509.103 44.0993 509.252 43.5041 509.401 42.9089C509.599 42.2145 509.847 41.5698 510.145 40.9746C510.442 40.3794 510.839 39.8338 511.335 39.3379C512.178 38.4947 513.145 37.9739 514.236 37.7755C515.328 37.5771 516.394 37.8003 517.436 38.4451C518.725 39.2883 519.667 40.4786 520.263 42.0162C520.858 43.4049 521.279 44.8433 521.527 46.3312C521.825 47.8191 522.073 49.3071 522.271 50.795C522.42 53.0269 522.42 55.2341 522.271 57.4164C522.123 59.5987 521.924 61.781 521.676 63.9633C521.627 64.3601 521.527 64.7569 521.379 65.1537C521.279 65.5009 521.081 65.8481 520.783 66.1953C520.535 66.592 520.163 66.8896 519.667 67.088C519.221 67.2864 518.775 67.2864 518.328 67.088C517.485 66.8896 517.014 66.2201 516.915 65.0793C516.716 63.2442 516.493 61.409 516.245 59.5739C516.047 57.7388 515.824 55.9036 515.576 54.0685C515.377 52.9774 515.253 51.911 515.204 50.8694C515.154 49.8279 515.005 48.8111 514.757 47.8191C514.559 47.8191 514.435 47.8935 514.385 48.0423C514.336 48.1415 514.286 48.2407 514.236 48.3399C513.145 50.8694 512.253 53.4485 511.558 56.0772C510.913 58.6563 510.467 61.3346 510.219 64.1121C510.169 64.9057 510.07 65.6993 509.921 66.4928C509.822 67.2864 509.723 68.08 509.624 68.8736C509.376 70.4607 508.483 71.3287 506.946 71.4775C506.35 71.4775 505.78 71.2295 505.234 70.7335C504.689 70.2871 504.366 69.7167 504.267 69.0224C504.118 68.2288 503.994 67.46 503.895 66.716C503.846 65.9721 503.796 65.2033 503.746 64.4097C503.548 62.6738 503.35 60.9379 503.151 59.2019C502.953 57.4164 502.779 55.6557 502.63 53.9197C502.432 51.8862 502.234 49.8775 502.035 47.8935C501.837 45.86 501.688 43.8513 501.589 41.8674C501.49 40.0818 501.415 38.3211 501.366 36.5852C501.316 34.8492 501.291 33.0885 501.291 31.303C501.291 29.4182 501.291 27.5087 501.291 25.5744C501.341 23.5904 501.564 21.6561 501.961 19.7714C502.06 19.1762 502.184 18.6058 502.333 18.0602C502.531 17.4651 502.804 16.9195 503.151 16.4235C503.548 15.8283 504.044 15.3819 504.639 15.0844C505.284 14.7868 505.904 14.762 506.499 15.01C507.838 15.3075 508.508 16.2747 508.508 17.9114C508.607 20.8377 508.557 23.7888 508.359 26.7647C508.21 29.7406 508.161 32.6917 508.21 35.618C508.26 37.4035 508.26 39.1891 508.21 40.9746C508.21 42.7601 508.21 44.5457 508.21 46.3312H508.508ZM528.028 56.97C528.028 54.6389 528.35 52.407 528.995 50.2743C529.689 48.0919 530.582 45.9592 531.673 43.8761C532.219 42.8841 532.864 41.9418 533.608 41.049C534.352 40.1562 535.195 39.3875 536.137 38.7427C537.427 37.8499 538.766 37.3291 540.155 37.1803C541.643 37.0811 542.982 37.4035 544.172 38.1475C545.362 38.8915 546.28 39.9082 546.925 41.1978C547.57 42.4377 547.768 43.8513 547.52 45.4384C547.47 45.8848 547.371 46.356 547.222 46.852C547.074 47.348 546.875 47.8191 546.627 48.2655C545.982 49.5055 545.214 50.6958 544.321 51.8366C543.478 52.9278 542.436 53.8949 541.196 54.7381C540.403 55.2837 539.559 55.7548 538.667 56.1516C537.823 56.4988 536.906 56.6476 535.914 56.598C535.567 56.598 535.344 56.6476 535.244 56.7468C535.195 56.846 535.17 57.0692 535.17 57.4164C535.12 58.21 535.17 59.0035 535.319 59.7971C535.468 60.5907 535.666 61.3842 535.914 62.1778C536.212 62.8226 536.484 63.1946 536.732 63.2938C536.98 63.393 537.427 63.2442 538.071 62.8474C539.014 62.3514 539.857 61.6818 540.601 60.8387C541.047 60.4419 541.494 60.0947 541.94 59.7971C542.387 59.4499 542.833 59.1027 543.279 58.7555C543.478 58.5571 543.775 58.3588 544.172 58.1604C544.916 57.9124 545.536 57.9868 546.032 58.3836C546.578 58.7307 546.85 59.3011 546.85 60.0947C546.85 60.4419 546.826 60.7891 546.776 61.1362C546.726 61.4834 546.652 61.8306 546.553 62.1778C545.908 64.0625 544.99 65.6993 543.8 67.088C542.61 68.4768 540.998 69.4935 538.964 70.1383C536.137 70.8823 533.682 70.2127 531.599 68.1296C530.508 67.0384 529.739 65.8233 529.293 64.4841C528.846 63.145 528.499 61.7562 528.251 60.3179C528.201 59.7723 528.152 59.2267 528.102 58.6811C528.102 58.086 528.077 57.5156 528.028 56.97ZM541.94 44.6945C541.94 44.3473 541.915 44.0497 541.866 43.8017C541.816 43.5041 541.667 43.3057 541.419 43.2065C541.072 43.0081 540.626 43.1321 540.08 43.5785C539.882 43.6777 539.708 43.8017 539.559 43.9505C539.411 44.0993 539.237 44.2729 539.039 44.4713C538.394 45.2648 537.848 46.1328 537.402 47.0752C537.005 48.0175 536.633 48.9599 536.286 49.9023C536.038 50.2495 536.063 50.5222 536.36 50.7206C536.46 50.8198 536.584 50.8694 536.732 50.8694C536.931 50.8198 537.08 50.7702 537.179 50.7206C539.411 49.4807 540.973 47.6455 541.866 45.2152C541.915 45.116 541.94 45.0168 541.94 44.9176C541.94 44.7689 541.94 44.6945 541.94 44.6945ZM572.21 60.3179C571.764 61.1114 571.367 61.8306 571.02 62.4754C570.722 63.0706 570.375 63.6906 569.978 64.3353C569.333 65.2777 568.664 66.1457 567.969 66.9392C567.275 67.6832 566.457 68.3776 565.514 69.0224C563.729 70.2127 561.869 70.6591 559.934 70.3615C557.752 69.9151 556.066 68.6752 554.875 66.6416C554.28 65.6001 553.859 64.5337 553.611 63.4426C553.363 62.3018 553.239 61.1114 553.239 59.8715C553.288 56.6476 553.933 53.7213 555.173 51.0926C556.413 48.4639 558.149 46.0584 560.381 43.8761C561.075 43.2809 561.794 42.7105 562.538 42.165C563.282 41.6194 564.125 41.2722 565.068 41.1234C565.911 40.925 566.705 40.8506 567.449 40.9002C568.242 40.9498 569.036 41.0986 569.829 41.3466C569.928 41.3962 570.077 41.4458 570.276 41.4954C570.474 41.4954 570.672 41.4458 570.871 41.3466C570.871 40.553 570.871 39.7346 570.871 38.8915C570.92 37.9987 570.92 37.1307 570.871 36.2876C570.871 34.3532 570.945 32.4685 571.094 30.6334C571.144 29.4926 571.144 28.3767 571.094 27.2855C571.094 26.1943 571.094 25.1032 571.094 24.012C571.144 23.0697 571.168 22.1025 571.168 21.1105C571.218 20.1186 571.292 19.1514 571.392 18.209C571.491 17.5147 571.615 16.8451 571.764 16.2003C571.962 15.5555 572.26 14.9604 572.656 14.4148C573.004 13.6212 573.599 13.2244 574.442 13.2244C575.434 13.0756 576.178 13.4724 576.674 14.4148C577.021 14.9604 577.269 15.5555 577.418 16.2003C577.616 16.7955 577.74 17.4403 577.79 18.1346C577.939 19.3746 578.013 20.6393 578.013 21.9289C578.063 23.2185 578.063 24.508 578.013 25.7976C578.013 28.7734 577.988 31.7741 577.939 34.7996C577.889 37.7755 577.839 40.7762 577.79 43.8017C577.79 45.488 577.79 47.1744 577.79 48.8607C577.839 50.4974 577.839 52.159 577.79 53.8453C577.74 55.5317 577.715 57.2428 577.715 58.9787C577.715 60.6651 577.815 62.3762 578.013 64.1121C578.013 64.8561 578.112 65.6001 578.311 66.3441C578.807 67.6336 578.435 68.6008 577.195 69.2455C576.153 69.7415 575.186 69.4439 574.293 68.3528C574.095 68.0056 573.921 67.6336 573.772 67.2368C573.624 66.84 573.5 66.4681 573.4 66.1209C573.202 65.2281 573.004 64.3105 572.805 63.3682C572.656 62.3762 572.458 61.3594 572.21 60.3179ZM568.49 47.596C567.945 47.4968 567.473 47.5464 567.077 47.7447C566.68 47.8935 566.308 48.0919 565.961 48.3399C565.514 48.6375 565.117 48.9847 564.77 49.3815C564.423 49.7287 564.076 50.1255 563.729 50.5718C562.538 52.1094 561.621 53.7213 560.976 55.4077C560.381 57.094 560.182 58.9043 560.381 60.8387C560.381 61.285 560.406 61.781 560.455 62.3266C560.554 62.8226 560.827 63.1202 561.274 63.2194C561.67 63.3186 562.018 63.1946 562.315 62.8474C562.662 62.4506 562.935 62.0786 563.133 61.7314C564.125 60.3923 564.919 59.0283 565.514 57.6396C566.159 56.2508 566.705 54.7877 567.151 53.2501C567.449 52.3078 567.697 51.3902 567.895 50.4974C568.093 49.5551 568.292 48.5879 568.49 47.596ZM623.636 67.0136C624.777 66.1705 625.669 65.2777 626.314 64.3353C627.207 63.0954 628.075 61.8306 628.918 60.5411C629.811 59.2515 630.58 57.9124 631.224 56.5236C631.274 56.3252 631.324 56.1764 631.373 56.0772C631.423 55.9284 631.448 55.7796 631.448 55.6309C631.497 54.5893 632.092 53.9445 633.233 53.6965C634.374 53.5973 635.217 54.0189 635.763 54.9613C636.06 55.3085 636.234 55.6805 636.283 56.0772C636.383 56.4244 636.432 56.8212 636.432 57.2676C636.234 59.8963 635.539 62.4258 634.349 64.8561C632.861 67.7824 630.877 70.2127 628.397 72.147C627.852 72.5934 627.281 72.9654 626.686 73.263C626.141 73.6102 625.521 73.8582 624.826 74.007C623.586 74.3046 622.346 74.1806 621.106 73.635C619.866 73.139 618.874 72.3454 618.13 71.2543C617.684 70.5103 617.287 69.7415 616.94 68.948C616.593 68.1048 616.295 67.2616 616.047 66.4185C615.403 64.5833 614.931 62.6986 614.634 60.7643C614.336 58.8299 614.063 56.8956 613.815 54.9613C613.419 52.1838 613.121 49.3567 612.923 46.48C612.675 43.6033 612.551 40.7266 612.551 37.8499C612.551 37.3043 612.501 36.9819 612.402 36.8827C612.303 36.7835 611.955 36.7835 611.36 36.8827C610.716 37.0315 610.071 37.2051 609.426 37.4035C608.732 37.5523 608.037 37.6763 607.343 37.7755C606.5 37.9739 605.607 37.8499 604.665 37.4035C603.772 36.8579 603.276 36.114 603.177 35.1716C603.077 34.1796 603.375 33.3365 604.069 32.6421C604.764 32.0469 605.508 31.6253 606.301 31.3774C607.194 31.1294 608.087 30.8814 608.98 30.6334C609.823 30.3854 610.691 30.1622 611.584 29.9638C612.179 29.8646 612.551 29.7654 612.699 29.6662C612.799 29.5174 612.873 29.1206 612.923 28.4759C612.972 26.7895 613.121 25.128 613.369 23.4912C613.567 21.8049 613.89 20.1186 614.336 18.4322C614.535 17.8371 614.708 17.2419 614.857 16.6467C615.055 16.0019 615.328 15.4067 615.675 14.8612C615.973 14.4644 616.271 14.1172 616.568 13.8196C616.866 13.4724 617.213 13.1996 617.61 13.0012C618.552 12.3565 619.594 12.3069 620.734 12.8524C621.23 13.1996 621.528 13.6212 621.627 14.1172C621.776 14.6132 621.801 15.134 621.702 15.6795C621.602 16.7707 621.404 17.8619 621.106 18.953C620.809 19.9946 620.61 21.0857 620.511 22.2265C620.412 23.1689 620.288 24.1112 620.139 25.0536C620.04 25.9959 619.941 26.9631 619.842 27.9551C619.842 28.4015 619.866 28.6743 619.916 28.7734C620.015 28.823 620.313 28.8478 620.809 28.8478C621.801 28.8478 622.743 28.823 623.636 28.7734C624.529 28.7239 625.446 28.6991 626.389 28.6991C628.075 28.6991 629.488 29.3438 630.629 30.6334C630.927 30.8814 631.15 31.179 631.299 31.5261C631.497 31.8237 631.621 32.1461 631.671 32.4933C631.77 33.3365 631.497 34.0805 630.852 34.7252C630.208 35.3204 629.538 35.4692 628.844 35.1716C628.744 35.1716 628.62 35.1716 628.472 35.1716C628.372 35.122 628.248 35.122 628.1 35.1716C627.009 35.5684 625.893 35.742 624.752 35.6924C623.661 35.6428 622.545 35.6924 621.404 35.8412H620.362C619.767 35.8412 619.47 36.1388 619.47 36.734C619.569 37.6763 619.618 38.6187 619.618 39.561C619.618 40.4538 619.643 41.3714 619.693 42.3137C619.792 44.7441 619.966 47.1744 620.214 49.6047C620.462 52.035 620.784 54.4405 621.181 56.8212C621.33 58.0612 621.503 59.3011 621.702 60.5411C621.95 61.7314 622.247 62.9466 622.594 64.1865C622.693 64.6329 622.842 65.0793 623.041 65.5257C623.239 65.9721 623.437 66.4681 623.636 67.0136ZM649.31 46.3312C649.509 45.7856 649.658 45.24 649.757 44.6945C649.906 44.0993 650.054 43.5041 650.203 42.9089C650.402 42.2145 650.65 41.5698 650.947 40.9746C651.245 40.3794 651.642 39.8338 652.138 39.3379C652.981 38.4947 653.948 37.9739 655.039 37.7755C656.13 37.5771 657.197 37.8003 658.238 38.4451C659.528 39.2883 660.47 40.4786 661.065 42.0162C661.66 43.4049 662.082 44.8433 662.33 46.3312C662.628 47.8191 662.876 49.3071 663.074 50.795C663.223 53.0269 663.223 55.2341 663.074 57.4164C662.925 59.5987 662.727 61.781 662.479 63.9633C662.429 64.3601 662.33 64.7569 662.181 65.1537C662.082 65.5009 661.884 65.8481 661.586 66.1953C661.338 66.592 660.966 66.8896 660.47 67.088C660.024 67.2864 659.577 67.2864 659.131 67.088C658.288 66.8896 657.817 66.2201 657.717 65.0793C657.519 63.2442 657.296 61.409 657.048 59.5739C656.849 57.7388 656.626 55.9036 656.378 54.0685C656.18 52.9774 656.056 51.911 656.006 50.8694C655.957 49.8279 655.808 48.8111 655.56 47.8191C655.361 47.8191 655.237 47.8935 655.188 48.0423C655.138 48.1415 655.089 48.2407 655.039 48.3399C653.948 50.8694 653.055 53.4485 652.361 56.0772C651.716 58.6563 651.27 61.3346 651.022 64.1121C650.972 64.9057 650.873 65.6993 650.724 66.4928C650.625 67.2864 650.526 68.08 650.426 68.8736C650.178 70.4607 649.286 71.3287 647.748 71.4775C647.153 71.4775 646.583 71.2295 646.037 70.7335C645.491 70.2871 645.169 69.7167 645.07 69.0224C644.921 68.2288 644.797 67.46 644.698 66.716C644.648 65.9721 644.599 65.2033 644.549 64.4097C644.351 62.6738 644.152 60.9379 643.954 59.2019C643.755 57.4164 643.582 55.6557 643.433 53.9197C643.235 51.8862 643.036 49.8775 642.838 47.8935C642.64 45.86 642.491 43.8513 642.392 41.8674C642.292 40.0818 642.218 38.3211 642.168 36.5852C642.119 34.8492 642.094 33.0885 642.094 31.303C642.094 29.4182 642.094 27.5087 642.094 25.5744C642.144 23.5904 642.367 21.6561 642.764 19.7714C642.863 19.1762 642.987 18.6058 643.136 18.0602C643.334 17.4651 643.607 16.9195 643.954 16.4235C644.351 15.8283 644.847 15.3819 645.442 15.0844C646.087 14.7868 646.707 14.762 647.302 15.01C648.641 15.3075 649.31 16.2747 649.31 17.9114C649.41 20.8377 649.36 23.7888 649.162 26.7647C649.013 29.7406 648.963 32.6917 649.013 35.618C649.062 37.4035 649.062 39.1891 649.013 40.9746C649.013 42.7601 649.013 44.5457 649.013 46.3312H649.31ZM668.83 56.97C668.83 54.6389 669.153 52.407 669.798 50.2743C670.492 48.0919 671.385 45.9592 672.476 43.8761C673.021 42.8841 673.666 41.9418 674.41 41.049C675.154 40.1562 675.997 39.3875 676.94 38.7427C678.229 37.8499 679.568 37.3291 680.957 37.1803C682.445 37.0811 683.784 37.4035 684.975 38.1475C686.165 38.8915 687.083 39.9082 687.727 41.1978C688.372 42.4377 688.571 43.8513 688.323 45.4384C688.273 45.8848 688.174 46.356 688.025 46.852C687.876 47.348 687.678 47.8191 687.43 48.2655C686.785 49.5055 686.016 50.6958 685.123 51.8366C684.28 52.9278 683.239 53.8949 681.999 54.7381C681.205 55.2837 680.362 55.7548 679.469 56.1516C678.626 56.4988 677.709 56.6476 676.717 56.598C676.369 56.598 676.146 56.6476 676.047 56.7468C675.997 56.846 675.973 57.0692 675.973 57.4164C675.923 58.21 675.973 59.0035 676.121 59.7971C676.27 60.5907 676.469 61.3842 676.717 62.1778C677.014 62.8226 677.287 63.1946 677.535 63.2938C677.783 63.393 678.229 63.2442 678.874 62.8474C679.816 62.3514 680.66 61.6818 681.404 60.8387C681.85 60.4419 682.296 60.0947 682.743 59.7971C683.189 59.4499 683.636 59.1027 684.082 58.7555C684.28 58.5571 684.578 58.3588 684.975 58.1604C685.719 57.9124 686.339 57.9868 686.835 58.3836C687.38 58.7307 687.653 59.3011 687.653 60.0947C687.653 60.4419 687.628 60.7891 687.579 61.1362C687.529 61.4834 687.455 61.8306 687.355 62.1778C686.711 64.0625 685.793 65.6993 684.603 67.088C683.412 68.4768 681.8 69.4935 679.767 70.1383C676.94 70.8823 674.485 70.2127 672.402 68.1296C671.31 67.0384 670.542 65.8233 670.095 64.4841C669.649 63.145 669.302 61.7562 669.054 60.3179C669.004 59.7723 668.954 59.2267 668.905 58.6811C668.905 58.086 668.88 57.5156 668.83 56.97ZM682.743 44.6945C682.743 44.3473 682.718 44.0497 682.668 43.8017C682.619 43.5041 682.47 43.3057 682.222 43.2065C681.875 43.0081 681.428 43.1321 680.883 43.5785C680.684 43.6777 680.511 43.8017 680.362 43.9505C680.213 44.0993 680.04 44.2729 679.841 44.4713C679.196 45.2648 678.651 46.1328 678.205 47.0752C677.808 48.0175 677.436 48.9599 677.089 49.9023C676.841 50.2495 676.865 50.5222 677.163 50.7206C677.262 50.8198 677.386 50.8694 677.535 50.8694C677.733 50.8198 677.882 50.7702 677.981 50.7206C680.213 49.4807 681.776 47.6455 682.668 45.2152C682.718 45.116 682.743 45.0168 682.743 44.9176C682.743 44.7689 682.743 44.6945 682.743 44.6945ZM710.752 56.97C710.752 54.6389 711.074 52.407 711.719 50.2743C712.413 48.0919 713.306 45.9592 714.397 43.8761C714.943 42.8841 715.587 41.9418 716.331 41.049C717.075 40.1562 717.918 39.3875 718.861 38.7427C720.15 37.8499 721.49 37.3291 722.878 37.1803C724.366 37.0811 725.705 37.4035 726.896 38.1475C728.086 38.8915 729.004 39.9082 729.648 41.1978C730.293 42.4377 730.492 43.8513 730.244 45.4384C730.194 45.8848 730.095 46.356 729.946 46.852C729.797 47.348 729.599 47.8191 729.351 48.2655C728.706 49.5055 727.937 50.6958 727.045 51.8366C726.201 52.9278 725.16 53.8949 723.92 54.7381C723.126 55.2837 722.283 55.7548 721.39 56.1516C720.547 56.4988 719.63 56.6476 718.638 56.598C718.29 56.598 718.067 56.6476 717.968 56.7468C717.918 56.846 717.894 57.0692 717.894 57.4164C717.844 58.21 717.894 59.0035 718.042 59.7971C718.191 60.5907 718.39 61.3842 718.638 62.1778C718.935 62.8226 719.208 63.1946 719.456 63.2938C719.704 63.393 720.15 63.2442 720.795 62.8474C721.738 62.3514 722.581 61.6818 723.325 60.8387C723.771 60.4419 724.217 60.0947 724.664 59.7971C725.11 59.4499 725.557 59.1027 726.003 58.7555C726.201 58.5571 726.499 58.3588 726.896 58.1604C727.64 57.9124 728.26 57.9868 728.756 58.3836C729.301 58.7307 729.574 59.3011 729.574 60.0947C729.574 60.4419 729.549 60.7891 729.5 61.1362C729.45 61.4834 729.376 61.8306 729.276 62.1778C728.632 64.0625 727.714 65.6993 726.524 67.088C725.333 68.4768 723.721 69.4935 721.688 70.1383C718.861 70.8823 716.406 70.2127 714.323 68.1296C713.231 67.0384 712.463 65.8233 712.016 64.4841C711.57 63.145 711.223 61.7562 710.975 60.3179C710.925 59.7723 710.876 59.2267 710.826 58.6811C710.826 58.086 710.801 57.5156 710.752 56.97ZM724.664 44.6945C724.664 44.3473 724.639 44.0497 724.589 43.8017C724.54 43.5041 724.391 43.3057 724.143 43.2065C723.796 43.0081 723.349 43.1321 722.804 43.5785C722.605 43.6777 722.432 43.8017 722.283 43.9505C722.134 44.0993 721.961 44.2729 721.762 44.4713C721.118 45.2648 720.572 46.1328 720.126 47.0752C719.729 48.0175 719.357 48.9599 719.01 49.9023C718.762 50.2495 718.786 50.5222 719.084 50.7206C719.183 50.8198 719.307 50.8694 719.456 50.8694C719.654 50.8198 719.803 50.7702 719.902 50.7206C722.134 49.4807 723.697 47.6455 724.589 45.2152C724.639 45.116 724.664 45.0168 724.664 44.9176C724.664 44.7689 724.664 44.6945 724.664 44.6945ZM750.693 50.5718C749.8 51.3654 749.155 52.1838 748.759 53.0269C747.717 54.8621 746.874 56.7964 746.229 58.8299C745.584 60.8635 745.088 62.9466 744.741 65.0793C744.692 65.5753 744.592 66.0713 744.444 66.5672C744.295 67.0632 744.096 67.5096 743.848 67.9064C743.104 69.1464 742.113 69.6919 740.873 69.5431C740.228 69.5431 739.682 69.3695 739.236 69.0224C738.789 68.6752 738.393 68.2288 738.045 67.6832C737.847 67.2368 737.698 66.7656 737.599 66.2697C737.549 65.7737 737.475 65.2777 737.376 64.7817C737.128 62.7978 736.855 60.8139 736.558 58.8299C736.31 56.7964 736.136 54.7877 736.037 52.8038C735.938 51.4646 735.938 50.1255 736.037 48.7863C736.136 47.4472 736.285 46.108 736.483 44.7689C736.483 44.5209 736.533 44.2977 736.632 44.0993C736.731 43.8513 736.806 43.6281 736.855 43.4297C737.301 42.1898 738.12 41.6442 739.31 41.793C739.806 41.8426 740.253 42.0658 740.649 42.4625C741.046 42.8593 741.269 43.3305 741.319 43.8761C741.468 45.0664 741.592 46.232 741.691 47.3728C741.84 48.5135 742.013 49.6543 742.212 50.795C742.261 50.9934 742.286 51.2414 742.286 51.539C742.286 51.787 742.361 52.035 742.509 52.283C742.757 52.1838 742.906 52.0598 742.956 51.911C743.005 51.7126 743.055 51.539 743.104 51.3902C743.6 50.3982 744.096 49.4311 744.592 48.4887C745.088 47.4968 745.659 46.604 746.304 45.8104C746.601 45.4136 746.899 45.0416 747.196 44.6945C747.494 44.2977 747.841 43.9505 748.238 43.6529C749.527 42.6113 750.916 42.2146 752.404 42.4625C753.892 42.6609 755.107 43.4793 756.05 44.9176C756.496 45.7112 756.843 46.5544 757.091 47.4472C757.339 48.2903 757.513 49.1583 757.612 50.0511C757.86 51.539 758.058 53.0517 758.207 54.5893C758.406 56.0772 758.604 57.5652 758.802 59.0531C758.901 59.9459 759.025 60.8387 759.174 61.7314C759.373 62.5746 759.521 63.4426 759.621 64.3353C759.72 64.6825 759.844 64.9801 759.993 65.2281C760.141 65.4761 760.389 65.7241 760.737 65.9721C761.778 66.5176 762.101 67.3856 761.704 68.576C761.257 69.8159 760.489 70.5847 759.397 70.8823C758.306 71.1799 757.265 70.9319 756.273 70.1383C755.826 69.7415 755.454 69.3199 755.157 68.8736C754.859 68.4272 754.586 67.956 754.338 67.46C753.545 66.0217 752.95 64.5585 752.553 63.0706C752.156 61.5826 751.859 60.0203 751.66 58.3836C751.511 57.2428 751.387 56.0772 751.288 54.8869C751.189 53.6965 751.015 52.531 750.767 51.3902C750.767 51.291 750.743 51.1918 750.693 51.0926C750.693 50.9438 750.693 50.7702 750.693 50.5718ZM783.051 60.3179C782.604 61.1114 782.207 61.8306 781.86 62.4754C781.563 63.0706 781.215 63.6906 780.819 64.3353C780.174 65.2777 779.504 66.1457 778.81 66.9392C778.116 67.6832 777.297 68.3776 776.355 69.0224C774.569 70.2127 772.709 70.6591 770.775 70.3615C768.593 69.9151 766.906 68.6752 765.716 66.6416C765.121 65.6001 764.699 64.5337 764.451 63.4426C764.203 62.3018 764.079 61.1114 764.079 59.8715C764.129 56.6476 764.774 53.7213 766.014 51.0926C767.254 48.4639 768.989 46.0584 771.221 43.8761C771.916 43.2809 772.635 42.7105 773.379 42.165C774.123 41.6194 774.966 41.2722 775.908 41.1234C776.752 40.925 777.545 40.8506 778.289 40.9002C779.083 40.9498 779.876 41.0986 780.67 41.3466C780.769 41.3962 780.918 41.4458 781.116 41.4954C781.315 41.4954 781.513 41.4458 781.711 41.3466C781.711 40.553 781.711 39.7346 781.711 38.8915C781.761 37.9987 781.761 37.1307 781.711 36.2876C781.711 34.3532 781.786 32.4685 781.935 30.6334C781.984 29.4926 781.984 28.3767 781.935 27.2855C781.935 26.1943 781.935 25.1032 781.935 24.012C781.984 23.0697 782.009 22.1025 782.009 21.1105C782.059 20.1186 782.133 19.1514 782.232 18.209C782.331 17.5147 782.455 16.8451 782.604 16.2003C782.803 15.5555 783.1 14.9604 783.497 14.4148C783.844 13.6212 784.439 13.2244 785.282 13.2244C786.274 13.0756 787.018 13.4724 787.514 14.4148C787.862 14.9604 788.11 15.5555 788.258 16.2003C788.457 16.7955 788.581 17.4403 788.63 18.1346C788.779 19.3746 788.854 20.6393 788.854 21.9289C788.903 23.2185 788.903 24.508 788.854 25.7976C788.854 28.7734 788.829 31.7741 788.779 34.7996C788.73 37.7755 788.68 40.7762 788.63 43.8017C788.63 45.488 788.63 47.1744 788.63 48.8607C788.68 50.4974 788.68 52.159 788.63 53.8453C788.581 55.5317 788.556 57.2428 788.556 58.9787C788.556 60.6651 788.655 62.3762 788.854 64.1121C788.854 64.8561 788.953 65.6001 789.151 66.3441C789.647 67.6336 789.275 68.6008 788.035 69.2455C786.994 69.7415 786.026 69.4439 785.134 68.3528C784.935 68.0056 784.762 67.6336 784.613 67.2368C784.464 66.84 784.34 66.4681 784.241 66.1209C784.042 65.2281 783.844 64.3105 783.646 63.3682C783.497 62.3762 783.299 61.3594 783.051 60.3179ZM779.331 47.596C778.785 47.4968 778.314 47.5464 777.917 47.7447C777.52 47.8935 777.148 48.0919 776.801 48.3399C776.355 48.6375 775.958 48.9847 775.611 49.3815C775.264 49.7287 774.916 50.1255 774.569 50.5718C773.379 52.1094 772.461 53.7213 771.817 55.4077C771.221 57.094 771.023 58.9043 771.221 60.8387C771.221 61.285 771.246 61.781 771.296 62.3266C771.395 62.8226 771.668 63.1202 772.114 63.2194C772.511 63.3186 772.858 63.1946 773.156 62.8474C773.503 62.4506 773.776 62.0786 773.974 61.7314C774.966 60.3923 775.76 59.0283 776.355 57.6396C777 56.2508 777.545 54.7877 777.992 53.2501C778.289 52.3078 778.537 51.3902 778.735 50.4974C778.934 49.5551 779.132 48.5879 779.331 47.596ZM796.369 43.8761V33.0885C796.418 30.7574 796.443 28.4511 796.443 26.1695C796.493 23.888 796.567 21.6065 796.666 19.325C796.766 17.7379 796.865 16.1259 796.964 14.4892C797.113 12.8028 797.286 11.1413 797.485 9.50456C797.584 8.5126 797.832 7.66943 798.229 6.97506C798.874 5.63591 799.816 5.04073 801.056 5.18952C801.75 5.23912 802.321 5.46231 802.767 5.8591C803.213 6.25588 803.536 6.77666 803.734 7.42144C803.982 8.06622 804.081 8.73579 804.032 9.43017C804.032 10.1245 804.007 10.8189 803.957 11.5133C803.858 12.7532 803.809 13.9932 803.809 15.2332C803.809 16.4235 803.784 17.6139 803.734 18.8042C803.685 20.7385 803.536 22.6481 803.288 24.5328C803.089 26.4175 802.891 28.3023 802.693 30.187C802.643 31.1294 802.593 32.0717 802.544 33.0141C802.544 33.9565 802.494 34.874 802.395 35.7668C802.197 37.2051 802.048 38.6683 801.949 40.1562C801.899 41.6442 801.775 43.1073 801.577 44.5457C801.477 45.3888 801.403 46.232 801.353 47.0752C801.304 47.9183 801.229 48.7863 801.13 49.6791C800.981 51.3158 800.833 52.9774 800.684 54.6637C800.585 56.3004 800.436 57.962 800.237 59.6483C800.237 59.9955 800.188 60.3427 800.089 60.6899C799.989 60.9875 799.865 61.3098 799.717 61.657C799.32 62.4506 798.75 62.773 798.006 62.6242C797.311 62.6242 796.84 62.2274 796.592 61.4338C796.394 60.7891 796.27 60.1691 796.22 59.5739C796.22 58.9787 796.22 58.3588 796.22 57.714C796.22 55.6805 796.22 53.5725 796.22 51.3902C796.22 49.1583 796.27 46.6536 796.369 43.8761ZM800.386 73.7094C800.337 74.0566 800.287 74.3542 800.237 74.6021C800.188 74.8997 800.113 75.1973 800.014 75.4949C799.469 76.7845 798.502 77.3796 797.113 77.2805C796.567 77.1813 796.071 76.8837 795.625 76.3877C795.228 75.8917 795.03 75.3213 795.03 74.6765C795.03 73.9822 795.154 73.3126 795.402 72.6678C795.699 72.0726 796.17 71.6015 796.815 71.2543C797.51 70.7087 798.229 70.5847 798.973 70.8823C799.717 71.2295 800.138 71.8247 800.237 72.6678C800.337 72.8662 800.361 73.0398 800.312 73.1886C800.312 73.3374 800.337 73.511 800.386 73.7094Z" fill="white"/>
<path d="M109.755 76.9229C105.214 77.6041 95.4496 80.4843 97.3048 86.8058C98.434 90.6535 103.15 92.8203 106.881 93.0068C108.225 93.0741 109.402 92.7301 110.595 92.151C110.99 91.9593 112.917 90.5395 113.437 90.8429C114.022 91.184 113.53 95.7033 113.518 96.2688C113.447 99.5634 112.537 103.172 112.953 106.442C113.023 106.997 113.965 105.964 114.438 105.667C116.486 104.384 118.828 103.742 121.253 104.02C124.231 104.361 129.649 106.775 128.714 110.673C127.717 114.827 122.567 114.961 119.186 114.388C117.676 114.132 116.14 113.639 114.697 113.128C113.997 112.88 113.777 112.808 113.211 112.417C113.048 112.305 112.811 111.967 112.694 112.127C112.348 112.603 112.35 114.575 112.307 114.969C112.118 116.704 111.377 119.366 111.855 121.105C112.176 122.275 114.144 122.914 115.02 123.269C117.959 124.459 121.085 125.203 124.208 125.708C129.528 126.567 135.31 126.624 140.583 125.401C144.567 124.477 145.077 122.321 146.671 119.038C148.293 115.7 147.542 120.467 147.559 121.832C147.67 130.506 147.834 139.171 147.834 147.847" stroke="white" stroke-width="4.04208" stroke-linecap="round"/>
<path d="M160.914 133.604C160.914 115.037 163.53 96.6481 163.53 78.085" stroke="white" stroke-width="4.04208" stroke-linecap="round"/>
<path d="M95.8029 28.0887C90.9778 20.3684 92.2699 8.00705 100.486 3.20376C101.404 2.66683 102.551 1.99675 102.23 3.62362C101.785 5.8853 101.157 8.04734 100.938 10.3576C100.759 12.248 100.532 14.3868 100.777 16.2841C100.807 16.522 101.156 15.9741 101.277 15.7673C102.179 14.2344 102.503 13.6385 103.651 12.0693C105.774 9.16857 109.261 5.37092 113.163 4.88321C113.688 4.81752 112.733 5.85561 112.452 6.30428C111.072 8.50502 110.309 10.9494 109.691 13.4581C109.483 14.3019 108.462 17.2023 108.916 18.2219C108.962 18.3262 109.995 16.9652 109.998 16.9623C112.987 13.3755 117.313 11.2509 121.673 9.77622C124.451 8.83652 122.299 11.307 121.673 12.8122C120.784 14.9479 119.012 18.751 120.058 21.1771C120.962 23.2721 125.899 23.1575 127.68 23.1472C133.437 23.114 138.591 20.1975 144.249 19.4977C150.775 18.6902 159.395 20.1434 161.592 27.4428C162.077 29.0539 161.803 30.9985 162.012 32.6749C162.205 34.2217 162.077 35.8346 162.077 37.3903" stroke="white" stroke-width="4.04208" stroke-linecap="round"/>
<path d="M144.929 150.308C129.941 152.251 111.525 157.939 98.2022 147.866C91.308 142.653 88.2555 134.499 87.5544 126.086C87.4354 124.658 87.563 122.86 86.5204 121.708C86.2013 121.355 85.4758 121.367 85.7505 120.938C87.1641 118.729 89.8778 116.518 90.5024 113.876C91.1755 111.028 85.5068 111.391 84.1225 111.852C82.9098 112.257 78.739 116.041 78.1386 115.24C76.2392 112.708 74.2068 106.376 70.0867 107.1C66.5277 107.726 63.42 111.976 62.2988 115.152C61.0394 118.721 64.6263 121.954 66.9848 123.996C71.7909 128.157 75.4571 132.294 77.5886 138.384C79.4005 143.561 82.5802 148.02 85.9044 152.354C89.2366 156.697 95.0805 159.316 99.9182 161.615C104.672 163.875 110.042 165.519 115.23 166.367C122.156 167.5 130.091 167.478 137.054 166.763C140.064 166.454 142.444 164.744 145.325 164.167" stroke="white" stroke-width="4.04208" stroke-linecap="round"/>
<path d="M161.112 138.033C168.484 137.225 176.175 136.68 183.163 133.966C190.351 131.175 196.723 125.724 201.832 120.048C205.08 116.439 207.228 111.035 208.3 106.306C208.522 105.326 207.921 104.81 207.458 103.992C206.31 101.963 205.391 99.8936 205.302 97.5414C205.229 95.6066 206.528 93.4997 208.826 93.9305C211.059 94.3492 212.542 97.8907 212.542 99.9078C212.542 100.225 212.666 99.2843 212.752 98.9787C213.292 97.0657 214.161 95.1331 214.996 93.3345C215.888 91.4112 218.083 88.7384 220.482 88.8647C224.352 89.0683 228.851 92.4698 230.421 95.9112C231.897 99.148 230.224 102.51 227.721 104.658C226.045 106.097 223.995 106.886 221.937 107.603C220.841 107.985 219.138 108.143 218.238 108.953C217.353 109.749 217.062 110.968 216.608 112.02C215.738 114.037 214.536 115.922 213.208 117.664C210.306 121.47 207.62 125.473 204.619 129.198C198.148 137.23 187.733 139.799 178.921 144.361C175.574 146.094 172.845 146.89 169.14 147.428C168.522 147.518 166.453 147.498 166.476 147.498" stroke="white" stroke-width="4.04208" stroke-linecap="round"/>
<path d="M164.738 148.655C168.321 149.207 171.721 151.14 174.97 152.634C181.143 155.474 187.338 156.891 193.917 158.508C217.743 164.365 242.646 166.752 266.928 162.234C287.455 158.416 307.115 152.226 327.434 147.582C348.668 142.728 371.61 137.712 391.603 129.076C422.507 115.728 458.086 111.002 491.266 106.087C518.429 102.063 546.785 101.05 573.751 106.845C591.835 110.73 610.083 113.215 628.32 116.192C639.23 117.973 649.947 120.746 660.973 121.813C680.869 123.739 700.82 121.76 720.657 120.234" stroke="white" stroke-width="3" stroke-linecap="round"/>
<path d="M148.822 165.708C155.502 166.344 162.065 169.936 168.401 171.961C180.419 175.8 192.907 177.905 205.412 179.35C232.344 182.464 259.643 186.182 286.76 182.634C312.341 179.287 338.483 170.587 361.666 159.392C379.331 150.862 396.946 144.002 415.35 137.35C428.062 132.755 442.557 128.029 455.835 125.539C480.631 120.89 506.758 122.508 531.877 122.508C563.342 122.508 593.672 133.183 624.909 135.266C662.37 137.763 699.54 134.619 736.573 129.329" stroke="white" stroke-width="3" stroke-linecap="round"/>
<path d="M734.887 128.921C731.908 127.358 728.518 126.097 725.701 124.305C724.366 123.456 719.545 120.119 719.545 118.267C719.545 116.781 727.751 113.299 728.778 112.727C737.128 108.08 745.436 103.16 753.898 98.7349C755.16 98.075 760.701 94.729 762.256 95.5386C764.773 96.8499 766.562 100.43 768.08 102.665C770.065 105.587 770.948 106.913 767.133 108.371C763.952 109.587 760.554 110.117 757.331 111.212C754.522 112.167 751.808 113.379 748.997 114.337C748.055 114.658 747.113 114.963 746.156 115.237C744.85 115.61 748.853 115.579 750.205 115.71C755.732 116.247 761.279 116.371 766.802 116.989C768.966 117.231 771.511 116.994 773.62 117.462C775.337 117.844 774.52 122.817 774.52 123.949C774.52 124.71 774.996 127.346 774.425 128.069C773.915 128.715 772.418 128.843 771.844 128.921C766.14 129.697 760.306 129.712 754.561 129.963C749.405 130.189 744.26 130.2 739.101 130.2C737.903 130.2 735.739 129.773 734.887 130.626" stroke="white" stroke-width="3" stroke-linecap="round"/>
<path d="M776.225 126.364C780.773 126.124 785.247 125.389 789.744 124.706C796.484 123.683 803.19 123.807 809.987 123.807C813.587 123.807 820.279 121.797 820.877 126.648C821.062 128.144 821.482 136.497 823.576 136.497C827.584 136.497 827.791 130.892 827.791 128.305C827.791 126.437 828.419 118.936 825.565 118.693C820.428 118.256 814.861 118.509 809.726 118.74C802.842 119.05 795.89 120.2 789.057 121.06C784.295 121.66 779.319 121.25 774.521 121.25" stroke="white" stroke-width="3" stroke-linecap="round"/>
<path d="M765.145 96.5324C769.138 95.3036 772.885 93.5866 776.982 92.6023C782.098 91.3733 787.298 90.506 792.419 89.2877C799.006 87.7205 805.427 85.5573 811.999 83.937C813.717 83.5133 818.675 81.8413 820.522 83.2267C823.145 85.1938 824.402 91.0235 824.712 94.0228C825.039 97.1745 823.867 97.4434 820.83 96.5088C817.26 95.4105 817.314 91.1514 815.408 88.4827C814.734 87.5385 813.167 88.401 812.401 88.7195C808.982 90.1413 805.421 91.0784 801.889 92.1761C790.229 95.8001 777.431 95.7041 765.997 99.5156" stroke="white" stroke-width="3" stroke-linecap="round"/>
<path d="M108.486 55.5225H117.452" stroke="white" stroke-width="3" stroke-linecap="round"/>
<path d="M136.131 51.4137C141.671 47.6048 146.311 42.449 151.655 38.3386C154.536 36.1225 157.157 33.2425 160.413 31.6143" stroke="white" stroke-width="3" stroke-linecap="round"/>
<path d="M86.8193 52.1596C87.8942 50.0099 89.5877 48.0896 90.9702 46.1409C93.0245 43.2451 94.952 40.2614 97.0303 37.3827C100.423 32.6835 104.017 28.2377 108.113 24.1416" stroke="white" stroke-width="3" stroke-linecap="round"/>
</svg>
