<svg width="767" height="93" viewBox="0 0 767 93" fill="none" xmlns="http://www.w3.org/2000/svg">
<path d="M0.400568 0.0765558H8.7895V84.0792H50.7341V92.4681H0.400568V0.0765558ZM64.2244 78.2976H57.0825V42.0212H64.2244V35.106H71.253V28.0774H93.4723V35.106H100.388V42.0212H107.416V64.3539H65.4714V77.164H72.3866V84.0792H92.2253V77.164H99.2539V70.1354H107.416V78.2976H100.388V85.3262H93.4723V92.4681H71.253V85.3262H64.2244V78.2976ZM99.2539 56.0783V43.2682H92.2253V36.2396H72.3866V43.2682H65.4714V56.0783H99.2539ZM131.449 36.2396H117.279V28.0774H131.449V6.99176H139.611V28.0774H160.584V36.2396H139.611V84.0792H160.584V92.4681H138.364V85.3262H131.449V36.2396ZM188.018 21.0489H194.933V15.2673H188.018V0.0765558H203.209V22.2959H196.18V29.3244H188.018V21.0489ZM227.128 70.1354H235.517V84.0792H269.3V64.3539H234.27V57.3253H227.128V35.106H234.27V28.0774H270.433V35.106H277.462V50.2968H269.3V36.2396H235.517V56.0783H270.433V63.1069H277.462V85.3262H270.433V92.4681H234.27V85.3262H227.128V70.1354ZM347.634 78.2976H340.492V14.0203H347.634V6.99176H354.663V0.0765558H376.882V6.99176H383.797V14.0203H390.826V29.3244H382.664V15.2673H375.635V8.23876H355.796V15.2673H348.881V77.164H355.796V84.0792H375.635V77.164H382.664V56.0783H390.826V78.2976H383.797V85.3262H376.882V92.4681H354.663V85.3262H347.634V78.2976ZM404.316 78.2976H397.174V42.0212H404.316V35.106H411.345V28.0774H433.564V35.106H440.479V42.0212H447.508V78.2976H440.479V85.3262H433.564V92.4681H411.345V85.3262H404.316V78.2976ZM412.478 77.164V84.0792H432.317V77.164H439.346V43.2682H432.317V36.2396H412.478V43.2682H405.563V77.164H412.478ZM453.856 28.0774H462.245V35.106H468.027V28.0774H490.246V35.106H497.161V42.0212H504.19V92.4681H496.028V43.2682H488.999V36.2396H469.16V43.2682H462.245V92.4681H453.856V28.0774ZM510.538 28.0774H518.927V35.106H524.709V28.0774H546.928V35.106H553.843V42.0212H560.872V92.4681H552.709V43.2682H545.681V36.2396H525.842V43.2682H518.927V92.4681H510.538V28.0774ZM574.362 78.2976H567.22V42.0212H574.362V35.106H581.391V28.0774H603.61V35.106H610.525V42.0212H617.554V64.3539H575.609V77.164H582.524V84.0792H602.363V77.164H609.391V70.1354H617.554V78.2976H610.525V85.3262H603.61V92.4681H581.391V85.3262H574.362V78.2976ZM609.391 56.0783V43.2682H602.363V36.2396H582.524V43.2682H575.609V56.0783H609.391ZM631.044 78.2976H623.902V42.0212H631.044V35.106H638.072V28.0774H660.292V35.106H667.207V42.0212H674.236V50.2968H666.073V43.2682H659.045V36.2396H639.206V43.2682H632.291V77.164H639.206V84.0792H659.045V77.164H666.073V70.1354H674.236V78.2976H667.207V85.3262H660.292V92.4681H638.072V85.3262H631.044V78.2976ZM698.269 36.2396H684.098V28.0774H698.269V6.99176H706.431V28.0774H727.403V36.2396H706.431V84.0792H727.403V92.4681H705.184V85.3262H698.269V36.2396ZM758.238 0.0765558H766.514V71.2691H758.238V0.0765558ZM758.238 77.164H766.514V92.4681H758.238V77.164Z" fill="white"/>
</svg>
