<svg width="125" height="67" viewBox="0 0 125 67" fill="none" xmlns="http://www.w3.org/2000/svg">
<path d="M63.4765 31.4165C63.3064 31.7972 63.1972 32.0006 63.1222 32.2157C62.335 34.4744 61.0827 36.4815 59.6768 38.3979C58.4536 40.0651 56.9695 40.0572 55.7504 38.3861C54.987 37.3397 54.5266 36.1426 54.2792 34.8843C54.0746 33.844 54.2951 32.8629 54.9451 31.9879C55.8136 30.8188 56.4952 29.5637 56.6928 28.0942C56.7787 27.4557 56.7445 27.3572 56.1564 27.0537C55.4462 26.6872 54.6951 26.4634 53.8997 26.3391C49.6016 25.6676 45.9467 27.1308 42.6042 29.6456C41.1386 30.7483 39.9336 32.0999 38.8402 33.5566C38.0904 34.5555 37.8425 35.7388 37.5727 36.9135C37.059 39.1507 37.1562 41.3828 37.72 43.5912C38.3089 45.8983 39.5346 47.8457 41.3002 49.4527C42.2461 50.3137 43.3817 50.8542 44.5898 51.2543C46.0589 51.7408 47.5644 52.054 49.1085 52.1834C50.1964 52.2746 51.2536 52.1809 52.2627 51.7242C53.4097 51.2051 54.5885 50.7492 55.7075 50.1774C56.52 49.7622 57.3451 49.5257 58.249 49.5029C58.6685 49.4924 59.0869 49.4436 59.5063 49.4236C59.6429 49.417 59.8089 49.4028 59.9137 49.4677C60.3281 49.7245 60.7533 49.9786 61.1123 50.3016C61.273 50.4462 61.3741 50.7596 61.352 50.9817C61.2575 51.9273 61.0685 52.8449 60.6062 53.7089C59.805 55.2063 58.9753 56.6775 57.871 57.9839C57.3798 58.5651 56.8038 59.0182 56.1071 59.3225C54.8806 59.8583 53.5993 60.1787 52.2723 60.3788C48.6805 60.9204 45.1885 60.5705 41.7875 59.3217C40.2601 58.7608 38.8888 57.9308 37.66 56.8707C36.1208 55.5428 34.6743 54.1312 33.5578 52.4203C33.5217 52.365 33.4556 52.3289 33.3331 52.2231C33.2079 52.5208 33.0736 52.7808 32.9871 53.0556C32.2745 55.32 31.0393 57.2954 29.6503 59.2066C28.1727 61.2397 26.1644 62.5254 23.9053 63.5046C21.858 64.3921 19.6941 64.8751 17.5139 65.3003C15.2606 65.7398 12.9893 66.0027 10.6899 66.0044C9.73345 66.0051 8.77466 66.0582 7.82165 66.0049C7.36986 65.9796 6.8886 65.8333 6.49064 65.616C5.03214 64.8197 3.79178 63.77 3.08862 62.234C2.70371 61.3932 2.42445 60.5046 2.10553 59.6346C2.05024 59.4838 2.01953 59.3202 2.00355 59.16C1.92873 58.4099 2.33626 57.8869 3.08896 57.8162C3.80825 57.7486 4.53151 57.6972 5.25358 57.6892C6.95991 57.6704 8.66674 57.6968 10.3731 57.6777C14.1532 57.6354 17.8143 57.0134 21.2634 55.4079C22.5211 54.8224 23.6794 54.0836 24.6471 53.0864C26.1669 51.5203 26.5711 49.5804 26.4225 47.5013C26.3898 47.0436 26.1285 46.5759 25.8848 46.1637C24.8175 44.3589 23.3673 42.904 21.6878 41.6421C19.6524 40.1127 17.4605 38.8257 15.3214 37.4552C13.2808 36.1479 11.2263 34.8567 9.24589 33.4635C7.44794 32.1985 5.91403 30.6244 4.4797 28.9674C3.37326 27.6892 2.56041 26.2348 1.98496 24.6487C1.74005 23.9736 1.46868 23.308 1.2102 22.6378C-0.421172 18.4076 -0.118821 14.3667 2.49046 10.5917C5.91595 5.63588 10.6856 2.6153 16.548 1.29901C19.0148 0.745112 21.5532 0.671858 24.0819 0.795328C25.0746 0.843805 26.0044 1.18327 26.8445 1.71763C27.5328 2.1554 28.2077 2.61457 28.8774 3.08006C29.9442 3.82159 30.6856 4.81645 31.1251 6.02709C31.7825 7.83805 32.1081 9.69265 31.8442 11.6228C31.7689 12.1733 31.7325 12.729 31.668 13.2812C31.5465 14.3219 31.2829 15.3223 30.8736 16.2938C30.2136 17.8604 29.4244 19.3539 28.4554 20.7534C27.8734 21.594 27.1409 22.2475 26.1604 22.617C25.8537 22.7326 25.6468 22.6909 25.4013 22.4892C23.8611 21.2237 22.9413 18.7455 23.3516 16.8061C23.6392 15.4472 24.0197 14.1071 24.2854 12.7445C24.435 11.9776 24.4331 11.1819 24.5051 10.3997C24.5408 10.0111 24.3317 9.81863 23.9975 9.66862C23.2819 9.34741 22.5257 9.22577 21.7547 9.15809C20.4337 9.04212 19.139 9.17269 17.8808 9.5938C14.0634 10.8715 10.7471 12.9138 8.05923 15.9177C7.7972 16.2105 7.66718 16.5173 7.64704 16.913C7.53502 19.1142 8.16342 21.063 9.54567 22.7972C10.6129 24.1361 11.8179 25.3366 13.2234 26.3033C15.0845 27.5833 17.019 28.758 18.9114 29.9938C20.9799 31.3446 23.0508 32.6926 25.0935 34.081C26.7394 35.1996 28.1838 36.5538 29.5211 38.0199C29.6073 38.1144 29.7086 38.1954 29.8763 38.3507C29.9619 37.8337 30.0403 37.4082 30.1021 36.9804C30.597 33.5491 31.846 30.3881 33.7971 27.537C36.357 23.7964 39.6381 20.8655 43.9712 19.2272C45.531 18.6374 47.1604 18.3305 48.7981 18.0678C50.955 17.7218 53.1255 17.6761 55.2996 17.8771C56.477 17.9859 57.6177 18.2803 58.6144 18.9121C59.7532 19.6339 60.8312 20.4501 61.9353 21.2255C62.0068 21.2758 62.0763 21.329 62.2491 21.4563C62.2491 21.1694 62.2635 20.9755 62.2469 20.7843C62.0946 19.0303 61.9319 17.2771 61.7829 15.5227C61.6986 14.5302 61.621 13.5368 61.567 12.5423C61.5436 12.1121 61.4277 11.7322 61.2031 11.3651C60.6283 10.4256 60.2251 9.42114 60.063 8.32533C59.944 7.52111 60.0345 6.75815 60.4107 6.02973C60.7083 5.45358 60.992 4.8704 61.2822 4.29051C61.4838 3.88765 61.8182 3.67358 62.2551 3.56937C62.7062 3.46178 63.1688 3.3619 63.5897 3.17668C65.1186 2.50378 66.7399 2.1595 68.3602 1.81328C70.561 1.34298 72.7853 1.03153 75.0412 1.20406C77.6294 1.40198 80.1099 2.01527 82.399 3.27959C82.9499 3.58381 83.5217 3.85041 84.0749 4.15067C85.4428 4.8932 86.5374 5.91034 87.2126 7.32236C87.3813 7.67504 87.5106 8.0546 87.5963 8.43543C87.6778 8.7972 87.8899 8.95083 88.2257 8.967C88.4572 8.97814 88.6934 8.96255 88.9231 8.92929C90.888 8.64479 92.8451 8.29189 94.8176 8.078C98.192 7.71209 101.579 7.6132 104.973 7.81765C107.285 7.9569 109.584 8.16987 111.869 8.56038C115.218 9.13253 118.271 10.4167 121.109 12.2278C122.374 13.0354 123.385 14.0929 123.835 15.5622C124.2 16.7549 124.26 17.9763 124.016 19.2044C123.518 21.7172 122.437 23.9987 121.089 26.1523C120.68 26.8066 120.076 27.367 119.479 27.8756C117.818 29.2905 115.936 30.3716 113.92 31.2075C109.035 33.2332 104.005 34.7872 98.7813 35.6945C98.298 35.7784 97.8147 35.8635 97.3342 35.9613C96.7781 36.0744 96.7224 36.1558 96.8497 36.7203C97.3389 38.8894 97.8626 41.0513 98.3225 43.2264C98.9503 46.1954 99.4484 49.187 99.8762 52.192C100.151 54.1227 100.314 56.0571 100.399 58.0018C100.47 59.6209 99.9399 61.1069 99.3578 62.5751C99.0594 63.3279 98.6869 64.0527 98.3291 64.7811C98.2289 64.9851 98.0854 65.1809 97.9209 65.3387C97.5063 65.7367 97.149 65.7288 96.6682 65.4022C95.9205 64.8943 95.3837 64.2396 94.9457 63.4428C93.7833 61.3279 93.2026 59.0784 92.9806 56.6899C92.6118 52.7216 91.9766 48.7885 91.1321 44.8905C91.0882 44.6876 91.0261 44.4882 90.964 44.2898C90.9526 44.2534 90.9 44.2296 90.8313 44.1689C90.7333 44.2363 90.6196 44.3022 90.5202 44.3848C89.8294 44.9593 89.5146 45.0172 88.7705 44.5086C87.7132 43.786 86.6665 43.042 85.6701 42.2402C84.8188 41.5552 84.0565 40.7628 83.2334 40.042C82.3929 39.3061 81.5716 38.5367 80.6626 37.8917C77.7553 35.8287 74.812 33.8154 71.8794 31.7874C71.6751 31.6461 71.4454 31.5408 71.1256 31.3618C71.1256 31.7321 71.0961 31.9969 71.1301 32.2534C71.5079 35.1005 71.9316 37.9421 72.2684 40.7938C72.5045 42.7932 72.6827 44.8032 72.781 46.8135C72.8654 48.5415 72.5145 50.2267 71.8746 51.8417C71.5332 52.7033 71.1965 53.5693 70.7955 54.4041C70.6103 54.7896 70.3161 55.1469 70 55.4419C69.5544 55.8577 69.255 55.8222 68.7642 55.4434C67.3048 54.3171 66.5126 52.7752 66.2234 51.0279C65.7659 48.2644 65.4373 45.4798 65.0647 42.7028C64.5843 39.1215 64.1151 35.5389 63.6373 31.9573C63.6199 31.8272 63.563 31.7024 63.4765 31.4165ZM116.529 18.9637C116.318 18.8193 116.215 18.7201 116.093 18.67C115.553 18.4501 115.014 18.2238 114.463 18.0368C111.543 17.0468 108.501 16.6665 105.455 16.3912C102.214 16.0984 98.9608 16.168 95.716 16.4421C94.8317 16.5167 93.9451 16.5811 93.0662 16.6992C91.6307 16.8921 91.8307 16.8882 92.1348 18.1055C92.8927 21.1387 93.6449 24.1733 94.4006 27.207C94.5835 27.9414 94.6639 27.9984 95.4134 27.8649C96.0801 27.7463 96.7412 27.5965 97.4082 27.4803C101.801 26.7148 106.02 25.3744 110.118 23.655C112.379 22.7064 114.429 21.4303 116.047 19.5554C116.194 19.3849 116.332 19.2062 116.529 18.9637ZM72.6263 9.67152C71.7935 9.75937 70.702 9.86487 69.6132 9.99281C68.898 10.0769 68.7941 10.1917 68.8198 10.9366C68.8406 11.5367 68.9228 12.1346 68.976 12.7336C69.1725 14.9453 69.3679 17.1571 69.565 19.3688C69.5752 19.4836 69.5882 19.5995 69.6152 19.7113C69.6801 19.9797 69.8345 20.1119 70.1257 20.0173C70.2585 19.9741 70.3948 19.941 70.5263 19.8943C73.2901 18.9122 75.742 17.4281 77.8644 15.4142C78.8922 14.4391 79.6418 13.2743 80.2217 11.9972C80.4625 11.4666 80.4182 11.3475 79.9098 11.1484C77.6541 10.2654 75.3156 9.76806 72.6263 9.67152ZM88.3884 34.1571C88.4426 34.1273 88.4968 34.0976 88.5511 34.0679C87.3316 29.282 86.1122 24.4961 84.8505 19.5443C83.8613 21.0161 82.8415 22.2283 81.6041 23.2224C80.385 24.2017 79.0923 25.0911 77.8026 26.0416C81.5053 28.5435 85.1025 31.15 88.3884 34.1571Z" fill="white"/>
</svg>
