<svg width="119" height="102" viewBox="0 0 119 102" fill="none" xmlns="http://www.w3.org/2000/svg">
<path d="M48.7071 14.8121C48.2523 20.1795 49.6266 32.9004 44.9135 36.6709C30.5208 34.2721 -5.41145 9.04488 4.56804 19.6897C13.2425 28.9425 21.5932 40.1521 28.2333 50.9423C32.082 57.1964 30.5817 61.2976 29.4979 68.2246C29.0769 70.9155 26.6322 99.2966 30.5818 99.2966C30.6319 99.2966 39.4407 85.8168 39.9757 85.2661C44.2896 80.8253 49.9704 74.4969 55.8128 72.0183C58.2855 70.9693 61.5733 75.1391 63.0388 76.4744C70.9246 83.6592 78.8223 91.8595 87.6676 97.8514C90.6985 99.9046 86.9966 91.5226 86.945 91.348C84.6162 83.4619 82.1055 75.532 80.3211 67.502C78.5663 59.6055 77.4006 55.7485 84.1148 51.4241C90.8266 47.1012 97.6225 42.9051 104.227 38.4172C107.392 36.2666 114.035 32.9502 116.15 29.5653C116.76 28.5904 113.9 30.0385 112.778 30.2879C108.751 31.1827 105.549 31.675 101.397 32.4557C94.1519 33.818 87.0216 35.3807 79.9598 37.5139C78.697 37.8954 70.4306 41.955 68.7594 40.2839C65.8841 37.4086 63.6279 31.7186 61.6538 28.2405C58.297 22.3261 55.9401 16.1692 53.5847 9.81407C52.8347 7.79043 51.8607 3.53143 49.9717 1.98585C49.9552 1.97236 48.8048 13.6599 48.7071 14.8121Z" stroke="white" stroke-width="4" stroke-linecap="round"/>
</svg>
