<svg width="90" height="110" viewBox="0 0 90 110" fill="none" xmlns="http://www.w3.org/2000/svg">
<path d="M32.7185 40.9519C38.6542 32.3027 40.3912 21.903 45.4845 12.7703C48.5515 7.27091 50.3972 -4.49083 53.8547 7.71203C56.3902 16.6607 58.5901 26.6144 62.5862 35.0506C64.1408 38.3325 79.7167 32.5075 83.3611 31.7989C93.1012 29.9049 84.1051 35.552 81.0728 38.8443C74.25 46.2519 68.3046 52.0955 69.4509 62.8709C71.0744 78.132 78.1153 92.6776 81.4341 107.612C81.6913 108.77 79.2868 106.497 78.4835 105.625C73.8599 100.605 69.0668 95.7872 64.2722 90.932C61.386 88.0092 58.8094 82.7588 55.4806 80.4543C47.8908 75.1998 31.8806 86.804 25.2516 89.547C22.9695 90.4914 4.82473 96.8301 7.6682 91.7751C13.141 82.0457 21.4103 74.3915 27.0581 64.9785C29.6172 60.7133 24.4401 54.9864 21.759 51.7307C15.6665 44.3326 9.2552 37.3025 3.0917 29.9923C-0.494233 25.7393 14.1039 32.5792 16.2792 33.3043C21.7207 35.1181 27.0561 35.9084 32.7185 36.6162" stroke="white" stroke-width="4" stroke-linecap="round"/>
</svg>
