<svg width="101" height="109" viewBox="0 0 101 109" fill="none" xmlns="http://www.w3.org/2000/svg">
<path d="M36.1216 47.4946C36.8421 33.805 39.7372 20.2492 41.735 6.70853C43.7456 -6.91888 50.2251 16.6683 51.967 20.9908C53.3184 24.3442 55.7913 39.3755 59.1437 41.0996C64.2541 43.7278 75.9031 39.4072 80.6025 37.9731C86.5763 36.1501 92.5327 33.4965 97.6559 29.8727C102.091 26.7356 91.9274 38.7595 91.1188 39.8916C87.8912 44.4103 84.9357 49.2852 81.171 53.3922C80.6208 53.9924 78.6526 54.9943 78.3998 55.8792C77.8668 57.7446 80.4117 61.2614 81.0999 62.5584C84.1245 68.2587 86.8107 73.939 89.1292 79.9671C91.7853 86.8729 102.248 105.947 97.0164 100.715C89.14 92.839 80.3123 86.1823 71.7916 79.0434C63.6315 72.2065 57.2326 81.402 51.6117 87.7122C45.8835 94.1429 39.8392 101.201 33.1372 106.684C31.2727 108.21 32.2845 101.917 32.2845 99.5075C32.2845 92.9467 32.2845 86.3858 32.2845 79.825C32.2845 73.2354 33.7153 70.625 26.458 70.5167C17.2009 70.3785 12.0741 65.9145 4.43064 61.1373C-2.36824 56.888 11.8979 55.2147 14.9469 54.8844C22.8446 54.0288 30.1817 51.8674 37.4006 48.7736" stroke="white" stroke-width="4" stroke-linecap="round"/>
</svg>
