<svg width="111" height="102" viewBox="0 0 111 102" fill="none" xmlns="http://www.w3.org/2000/svg">
<path d="M39.9558 35.8123C39.9558 24.9228 39.387 14.1348 38.7478 3.26869C38.4475 -1.837 49.7552 12.7353 51.4668 14.7797C54.5596 18.4738 60.9915 31.1514 66.1044 31.8331C79.0484 33.559 93.0137 31.5991 105.896 30.1989C116.513 29.0447 94.4986 41.1583 92.4661 42.2073C89.5597 43.7074 81.8855 46.2426 80.7419 49.8813C78.6891 56.4129 83.0955 66.6787 84.721 72.8324C86.7988 80.6984 88.5063 88.7386 90.9739 96.494C91.6363 98.5759 92.9882 101.502 90.2634 98.1283C83.837 90.1718 77.0239 83.1331 69.1598 76.5273C64.0475 72.233 59.9802 76.852 55.5881 80.2932C49.5126 85.0534 42.0456 88.355 36.5451 93.6517C28.9953 100.922 29.762 85.3824 30.008 80.8617C30.5186 71.4791 33.4158 62.4736 35.124 53.292C35.7855 49.7367 30.3361 50.2229 27.3079 48.176C24.868 46.5268 1.22702 29.1519 2.86464 26.8592C4.97864 23.8996 33.2692 31.9753 39.9558 31.9753" stroke="white" stroke-width="4" stroke-linecap="round"/>
</svg>
