<svg width="101" height="109" viewBox="0 0 101 109" fill="none" xmlns="http://www.w3.org/2000/svg">
<path d="M35.5064 46.978C36.2269 33.2884 39.122 19.7326 41.1199 6.19193C43.1305 -7.43548 49.61 16.1517 51.3519 20.4742C52.7033 23.8276 55.1762 38.8589 58.5285 40.583C63.639 43.2112 75.288 38.8906 79.9874 37.4565C85.9611 35.6335 91.9176 32.9799 97.0408 29.3561C101.476 26.219 91.3123 38.2429 90.5037 39.375C87.2761 43.8937 84.3206 48.7686 80.5559 52.8756C80.0057 53.4758 78.0375 54.4777 77.7847 55.3626C77.2517 57.228 79.7966 60.7447 80.4848 62.0418C83.5094 67.7421 86.1956 73.4224 88.5141 79.4505C91.1702 86.3563 101.633 105.431 96.4013 100.199C88.5249 92.3224 79.6971 85.6657 71.1765 78.5268C63.0163 71.6899 56.6174 80.8854 50.9966 87.1956C45.2684 93.6263 39.2241 100.684 32.5221 106.168C30.6576 107.693 31.6694 101.4 31.6694 98.9909C31.6694 92.4301 31.6694 85.8692 31.6694 79.3084C31.6694 72.7188 33.1002 70.1084 25.8428 70.0001C16.5858 69.8619 11.4589 65.3979 3.81552 60.6207C-2.98335 56.3714 11.2828 54.6981 14.3318 54.3678C22.2294 53.5122 29.5666 51.3508 36.7854 48.257" stroke="white" stroke-width="4" stroke-linecap="round"/>
</svg>
