<svg width="88" height="87" viewBox="0 0 88 87" fill="none" xmlns="http://www.w3.org/2000/svg">
<path d="M34.57 36.4568C36.9411 34.1576 37.497 31.7695 38.562 28.7077C40.0994 24.2877 42.4609 20.1537 44.7848 16.1055C45.5217 14.8219 52.4855 2.53091 53.0427 2.64235C55.9114 3.2161 54.2951 22.7536 54.2951 25.4593C54.2951 28.551 54.1526 31.6854 54.3343 34.7739C54.5039 37.6575 58.9554 36.392 60.8702 36.3002C68.5614 35.9318 76.1838 35.7523 83.8828 35.7523C85.7695 35.7523 85.6363 36.31 84.235 37.67C80.2222 41.5648 74.3262 43.5972 69.3238 45.8497C65.4289 47.6035 58.4717 48.4455 58.9524 53.638C59.876 63.6126 62.3927 73.6542 64.549 83.4213C64.9522 85.2473 64.5181 85.0935 63.2184 83.8127C59.8181 80.4617 56.6103 76.8148 53.6298 73.0891C50.1961 68.797 47.673 63.4141 41.7713 65.8879C40.1086 66.5848 19.403 77.6847 19.3848 77.6681C17.313 75.7847 18.074 69.3066 18.1716 67.1011C18.3644 62.7442 19.31 58.9307 20.3241 54.773C21.2245 51.0815 19.1806 46.996 17.5845 43.8537C13.5888 35.987 7.80618 30.4112 2.16452 23.8547C1.81118 23.444 7.62001 26.0136 8.19163 26.2812C13.4774 28.7553 19.0121 29.7792 24.7858 30.3905C28.2857 30.7611 31.7634 30.8211 35.2745 30.8211" stroke="white" stroke-width="4" stroke-linecap="round"/>
</svg>
